<svg width="131" height="44" viewBox="0 0 131 44" fill="none" xmlns="http://www.w3.org/2000/svg">
<path d="M101.866 31.6975C101.91 31.0525 102.355 30.6077 102.911 30.6077C103.556 30.6077 103.868 31.097 103.912 31.6975H101.866ZM102.956 33.299C103.489 33.299 103.823 33.0765 104.09 32.7652L103.912 32.5872C103.69 32.8096 103.378 33.0321 102.956 33.0321C102.422 33.0321 101.91 32.6317 101.866 31.9422H104.179C104.179 31.8977 104.179 31.8977 104.179 31.8532C104.179 31.0303 103.69 30.4075 102.911 30.4075C102.133 30.4075 101.599 31.0525 101.599 31.8532C101.554 32.6984 102.177 33.299 102.956 33.299ZM99.0855 33.299C99.2634 33.299 99.3969 33.2545 99.5303 33.21V32.9431C99.3524 33.0321 99.2634 33.0321 99.13 33.0321C98.8186 33.0321 98.5961 32.8986 98.5961 32.4982V30.6744H99.597V30.452H98.5961V29.54H98.3292V30.452H97.9066V30.6744H98.307V32.4982C98.3292 33.0543 98.6406 33.299 99.0855 33.299ZM95.371 33.2545H95.6379V30.452H95.371V33.2545ZM95.3265 29.6957H95.6379V29.3398H95.3265V29.6957ZM90.4777 33.2545H90.7446V31.6308C90.7446 31.0303 91.145 30.6299 91.701 30.6299C92.2349 30.6299 92.613 30.9858 92.613 31.5863V33.2545H92.8799V31.5196C92.8799 30.8301 92.4795 30.3852 91.7455 30.3852C91.2562 30.3852 90.9226 30.6521 90.7446 30.9858V30.4964H90.4777V33.2545ZM86.7188 33.0543C86.3184 33.0543 85.8958 32.8319 85.8958 32.4093C85.8958 32.0089 86.2072 31.7642 86.8077 31.7642C87.2081 31.7642 87.5417 31.8087 87.7642 31.8977V32.2091C87.8086 32.6984 87.2971 33.0543 86.7188 33.0543ZM86.7188 33.299C87.2526 33.299 87.5862 33.0321 87.8086 32.7652V33.21H88.0755V31.4751C88.0755 31.1192 87.9866 30.8746 87.8086 30.6966C87.6307 30.5187 87.3193 30.3852 86.9412 30.3852C86.5853 30.3852 86.2517 30.4742 85.9403 30.6077L86.0293 30.8301C86.2962 30.6966 86.5631 30.6077 86.8967 30.6077C87.4973 30.6077 87.8086 30.8746 87.8086 31.4751V31.6086C87.5417 31.5196 87.2748 31.4751 86.8967 31.4751C86.1627 31.4751 85.6734 31.7865 85.6734 32.387C85.6289 33.0098 86.1627 33.299 86.7188 33.299ZM82.3148 33.2545H82.5817V32.1201C82.5817 31.2082 83.1155 30.7189 83.805 30.7189H83.8495V30.4075C83.3157 30.4075 82.8486 30.7189 82.6262 31.2304V30.4075H82.3593V33.2767H82.3148V33.2545ZM78.4002 32.7429C77.7996 32.7429 77.3103 32.2981 77.3103 31.653C77.3103 31.008 77.7996 30.6077 78.4002 30.6077C79.0007 30.6077 79.5345 31.008 79.5345 31.653C79.579 32.3425 79.0007 32.7429 78.4002 32.7429ZM78.4446 34.0997C78.845 34.0997 79.2231 33.9662 79.4456 33.7438C79.668 33.5214 79.8014 33.21 79.8014 32.7874V30.4297H79.5345V30.9635C79.3121 30.6521 78.934 30.3185 78.3557 30.3185C77.6662 30.3185 76.9989 30.8078 76.9989 31.6308C76.9989 32.4538 77.6884 32.9431 78.3557 32.9431C78.8895 32.9431 79.2676 32.6317 79.5345 32.2981V32.6984C79.5345 33.4324 79.0897 33.7883 78.4446 33.7883C78.0443 33.7883 77.6217 33.6548 77.3103 33.3879L77.1324 33.6104C77.5327 33.9662 77.9998 34.0997 78.4446 34.0997Z" fill="#4D545C"/>
<path d="M121.418 20.2202L122.953 16.5057L124.488 20.2202H121.418ZM116.881 24.98H119.461L120.506 22.3999H125.355L126.4 24.98H129.025L124.132 13.4141H121.774L116.881 24.98ZM100.822 24.98H103.357V20.3537H108.028V24.98H110.564V13.503H108.028V18.0405H103.357V13.503H100.822V24.98ZM87.81 19.3083V15.8162H89.7674C91.0352 15.8162 91.8137 16.4168 91.8137 17.5511V17.5956C91.8137 18.5965 91.0797 19.3305 89.8119 19.3305L87.81 19.3083ZM85.2744 24.98H87.81V21.5325H89.7229C92.303 21.5325 94.3493 20.1757 94.3493 17.4844V17.4399C94.3493 15.0822 92.6811 13.503 89.9453 13.503H85.2744V24.98ZM70.5278 24.98H78.7797V22.6668H73.0634V13.503H70.5278V24.98ZM56.5374 20.2202L58.0721 16.5057L59.6069 20.2202H56.5374ZM52 24.98H54.6023L55.6477 22.3999H60.4965L61.5419 24.98H64.1665L59.2732 13.4141H56.96L52 24.98Z" fill="#4D545C"/>
<path d="M42.5498 21.9999C42.5498 10.6118 33.297 1.35905 21.9089 1.35905C10.4764 1.31456 1.22363 10.5673 1.22363 21.9999C1.22363 33.3879 10.4764 42.6407 21.8645 42.6407C27.0469 42.6407 31.7178 40.7279 35.3433 37.6584C34.5648 37.1246 33.853 36.1682 33.2525 34.7892C33.0301 34.2998 32.7632 33.6103 32.474 32.6984C32.1849 31.7865 31.8735 30.6966 31.5176 29.3398C30.1163 32.0534 28.6483 34.1441 27.1581 35.5454C25.2453 37.2803 23.0211 38.17 20.3965 38.17C17.4827 38.17 15.125 36.9467 13.2345 34.5445C11.4996 32.3203 10.6544 29.7402 10.6544 26.7375C10.6544 22.8896 11.5663 19.531 13.4124 16.7507C15.4587 13.5256 18.3502 11.9464 22.0869 11.9464C27.2248 11.9464 30.0274 15.216 30.5167 21.7552L34.0532 12.5914H39.5471L32.4295 27.7829C32.6075 28.4279 32.8299 29.0062 33.1635 29.6512C33.4749 30.2517 33.853 30.7856 34.2979 31.2749C35.4322 32.4982 36.5666 33.0988 37.701 33.0988C38.4349 33.0988 39.1022 32.8319 39.7472 32.2758C41.5044 29.2953 42.5498 25.7588 42.5498 21.9999ZM26.0682 31.1192C28.2035 27.8496 29.2934 25.4029 29.2934 23.7792C29.2934 21.5995 28.804 19.7756 27.8031 18.2409C26.5353 16.4171 24.8894 15.5274 22.9988 15.5274C20.4632 15.5274 18.3724 17.1066 16.8377 20.3317C15.5254 22.9563 14.8359 25.6921 14.8359 28.4946C14.8359 33.8995 16.4151 36.613 19.5513 36.613C21.3974 36.5018 23.6216 34.7002 26.0682 31.1192Z" fill="url(#paint0_linear_689_19771)"/>
<defs>
<linearGradient id="paint0_linear_689_19771" x1="1.21029" y1="21.9926" x2="42.5462" y2="21.9926" gradientUnits="userSpaceOnUse">
<stop stop-color="#7F963B"/>
<stop offset="1" stop-color="#A3BF69"/>
</linearGradient>
</defs>
</svg>
