<svg width="131" height="45" viewBox="0 0 131 45" fill="none" xmlns="http://www.w3.org/2000/svg">
<path d="M114.678 32.1976C114.722 31.5526 115.167 31.1078 115.723 31.1078C116.368 31.1078 116.679 31.5971 116.724 32.1976H114.678ZM115.768 33.7991C116.301 33.7991 116.635 33.5766 116.902 33.2653L116.724 33.0873C116.502 33.3097 116.19 33.5322 115.768 33.5322C115.234 33.5322 114.722 33.1318 114.678 32.4423H116.991C116.991 32.3978 116.991 32.3978 116.991 32.3533C116.991 31.5304 116.502 30.9076 115.723 30.9076C114.945 30.9076 114.411 31.5526 114.411 32.3533C114.411 33.1985 115.056 33.7991 115.768 33.7991ZM111.831 33.7546H112.098V29.751H111.831V33.7546ZM108.961 33.7546H109.228V30.9521H108.961V33.7546ZM108.917 30.1958H109.228V29.8399H108.917V30.1958ZM106.203 33.7991C106.381 33.7991 106.515 33.7546 106.648 33.7101V33.4432C106.515 33.5322 106.381 33.5322 106.248 33.5322C105.936 33.5322 105.714 33.3987 105.714 32.9983V31.1745H106.715V30.9521H105.714V30.0401H105.425V30.9521H105.025V31.1745H105.425V32.9983C105.38 33.5544 105.759 33.7991 106.203 33.7991ZM97.7735 33.5099C97.2397 33.5099 96.8616 33.154 96.8616 32.687C96.8616 32.3311 97.1285 31.953 97.729 31.7305L98.8634 32.9094C98.5742 33.2875 98.2184 33.5099 97.7735 33.5099ZM97.907 31.4859C97.5956 31.13 97.4621 30.9521 97.4621 30.7074C97.4621 30.3515 97.729 30.0624 98.1516 30.0624C98.5075 30.0624 98.7522 30.3293 98.7522 30.6629C98.7077 31.0188 98.4408 31.2857 97.907 31.4859ZM99.7086 33.7991L99.931 33.6211L99.197 32.8871C99.4195 32.6202 99.5974 32.2421 99.7976 31.8862L99.5307 31.7973C99.3972 32.1531 99.2193 32.4868 99.0413 32.7537L98.0404 31.7083C98.641 31.5304 98.9969 31.219 98.9969 30.7074C98.9969 30.2625 98.641 29.8844 98.1294 29.8844C97.5956 29.8844 97.173 30.2403 97.173 30.7519C97.173 31.0633 97.3064 31.2857 97.5734 31.6193C96.9283 31.8417 96.5724 32.2199 96.5724 32.7537C96.5724 33.3987 97.0618 33.7991 97.7513 33.7991C98.2406 33.7991 98.7077 33.5766 99.0636 33.1096L99.7086 33.7991ZM89.1435 32.1976C89.188 31.5526 89.6329 31.1078 90.1889 31.1078C90.8339 31.1078 91.1453 31.5971 91.1898 32.1976H89.1435ZM90.2334 33.7991C90.7672 33.7991 91.1008 33.5766 91.3678 33.2653L91.1898 33.0873C90.9674 33.3097 90.656 33.5322 90.2334 33.5322C89.6996 33.5322 89.188 33.1318 89.1435 32.4423H91.4567C91.4567 32.3978 91.4567 32.3978 91.4567 32.3533C91.4567 31.5304 90.9674 30.9076 90.1889 30.9076C89.4104 30.9076 88.8766 31.5526 88.8766 32.3533C88.8321 33.1985 89.4549 33.7991 90.2334 33.7991ZM86.3632 33.7991C86.5412 33.7991 86.6746 33.7546 86.8081 33.7101V33.4432C86.6301 33.5322 86.5412 33.5322 86.4077 33.5322C86.0963 33.5322 85.8739 33.3987 85.8739 32.9983V31.1745H86.8748V30.9521H85.8739V30.0401H85.607V30.9521H85.1844V31.1745H85.5848V32.9983C85.607 33.5544 85.9184 33.7991 86.3632 33.7991ZM82.6488 33.7546H82.9157V30.9521H82.6488V33.7546ZM82.6043 30.1958H82.9157V29.8399H82.6043V30.1958ZM77.7555 33.7546H78.0224V32.1309C78.0224 31.5304 78.4228 31.13 78.9788 31.13C79.5126 31.13 79.8907 31.4859 79.8907 32.0864V33.7546H80.1577V32.0197C80.1577 31.3302 79.7573 30.8853 79.0233 30.8853C78.534 30.8853 78.2003 31.1522 78.0224 31.4859V30.9965H77.7555V33.7546ZM73.9965 33.5544C73.5962 33.5544 73.1736 33.332 73.1736 32.9094C73.1736 32.509 73.485 32.2644 74.0855 32.2644C74.4859 32.2644 74.8195 32.3088 75.0419 32.3978V32.7092C75.0864 33.1985 74.5748 33.5544 73.9965 33.5544ZM73.9965 33.7991C74.5304 33.7991 74.864 33.5322 75.0864 33.2653V33.7101H75.3533V31.9752C75.3533 31.6193 75.2644 31.3747 75.0864 31.1967C74.9085 31.0188 74.5971 30.8853 74.219 30.8853C73.8631 30.8853 73.5295 30.9743 73.2181 31.1078L73.307 31.3302C73.5739 31.1967 73.8408 31.1078 74.1745 31.1078C74.775 31.1078 75.0864 31.3747 75.0864 31.9752V32.1087C74.8195 32.0197 74.5526 31.9752 74.1745 31.9752C73.4405 31.9752 72.9512 32.2866 72.9512 32.8871C72.9067 33.5099 73.4405 33.7991 73.9965 33.7991ZM69.5926 33.7546H69.8595V32.6202C69.8595 31.7083 70.3933 31.219 71.0828 31.219H71.1273V30.9076C70.5935 30.9076 70.1264 31.219 69.904 31.7305V30.9076H69.6371V33.7768H69.5926V33.7546ZM65.6779 33.243C65.0774 33.243 64.5881 32.7982 64.5881 32.1531C64.5881 31.5081 65.0774 31.1078 65.6779 31.1078C66.2785 31.1078 66.8123 31.5081 66.8123 32.1531C66.8568 32.8426 66.2785 33.243 65.6779 33.243ZM65.7224 34.5998C66.1228 34.5998 66.5009 34.4663 66.7233 34.2439C66.9457 34.0215 67.0792 33.7101 67.0792 33.2875V30.9298H66.8123V31.4636C66.5899 31.1522 66.2118 30.8186 65.6335 30.8186C64.9439 30.8186 64.2767 31.3079 64.2767 32.1309C64.2767 32.9539 64.9662 33.4432 65.6335 33.4432C66.1673 33.4432 66.5454 33.1318 66.8123 32.7982V33.1985C66.8123 33.9325 66.3674 34.2884 65.7224 34.2884C65.3221 34.2884 64.8995 34.1549 64.5881 33.888L64.4101 34.1105C64.8105 34.4663 65.2776 34.5998 65.7224 34.5998Z" fill="#4D545C"/>
<path d="M121.528 20.7207L123.063 17.0062L124.598 20.7207H121.528ZM116.991 25.4805H119.571L120.616 22.9004H125.465L126.511 25.4805H129.135L124.242 13.9146H121.884L116.991 25.4805ZM100.932 25.4805H103.468V20.8541H108.138V25.4805H110.674V14.0035H108.138V18.5409H103.468V14.0035H100.932V25.4805ZM87.9202 19.8088V16.3167H89.8775C91.1453 16.3167 91.9238 16.9173 91.9238 18.0516V18.0961C91.9238 19.097 91.1898 19.831 89.922 19.831L87.9202 19.8088ZM85.3846 25.4805H87.9202V22.033H89.8331C92.4132 22.033 94.4594 20.6762 94.4594 17.9849V17.9404C94.4594 15.5827 92.7913 14.0035 90.0555 14.0035H85.3846V25.4805ZM70.638 25.4805H78.8899V23.1673H73.1736V14.0035H70.638V25.4805ZM56.6476 20.7207L58.1823 17.0062L59.717 20.7207H56.6476ZM52.1102 25.4805H54.7125L55.7579 22.9004H60.6067L61.6521 25.4805H64.2767L59.3834 13.9146H57.0702L52.1102 25.4805Z" fill="#4D545C"/>
<path d="M42.546 22.5001C42.546 11.1121 33.2932 1.85929 21.9052 1.85929C10.4726 1.81481 1.21985 11.0676 1.21985 22.5001C1.21985 33.8882 10.4726 43.1409 21.8607 43.1409C27.0431 43.1409 31.714 41.2281 35.3395 38.1587C34.561 37.6249 33.8493 36.6684 33.2487 35.2894C33.0263 34.8001 32.7594 34.1106 32.4702 33.1986C32.1811 32.2867 31.8697 31.1968 31.5138 29.8401C30.1126 32.5536 28.6446 34.6444 27.1543 36.0457C25.2415 37.7805 23.0173 38.6702 20.3927 38.6702C17.4789 38.6702 15.1213 37.4469 13.2307 35.0448C11.4958 32.8205 10.6506 30.2404 10.6506 27.2377C10.6506 23.3898 11.5625 20.0312 13.4086 17.2509C15.4549 14.0258 18.3464 12.4466 22.0831 12.4466C27.2211 12.4466 30.0236 15.7162 30.5129 22.2554L34.0494 13.0916H39.5433L32.4258 28.2831C32.6037 28.9281 32.8261 29.5064 33.1597 30.1515C33.4711 30.752 33.8493 31.2858 34.2941 31.7751C35.4285 32.9985 36.5628 33.599 37.6972 33.599C38.4312 33.599 39.0984 33.3321 39.7435 32.776C41.5006 29.7956 42.546 26.2591 42.546 22.5001ZM26.0645 31.6194C28.1997 28.3498 29.2896 25.9032 29.2896 24.2795C29.2896 22.0998 28.8003 20.2759 27.7994 18.7412C26.5315 16.9173 24.8856 16.0276 22.995 16.0276C20.4594 16.0276 18.3686 17.6068 16.8339 20.8319C15.5216 23.4565 14.8321 26.1923 14.8321 28.9949C14.8321 34.3997 16.4113 37.1133 19.5475 37.1133C21.3936 37.0021 23.6178 35.2004 26.0645 31.6194Z" fill="url(#paint0_linear_29_6065)"/>
<defs>
<linearGradient id="paint0_linear_29_6065" x1="1.2065" y1="22.4929" x2="42.5424" y2="22.4929" gradientUnits="userSpaceOnUse">
<stop stop-color="#7F963B"/>
<stop offset="1" stop-color="#A3BF69"/>
</linearGradient>
</defs>
</svg>
