<svg width="142" height="42" viewBox="0 0 142 42" fill="none" xmlns="http://www.w3.org/2000/svg">
<path d="M41.3261 20.641C41.3261 9.25294 32.0733 0.000159731 20.6853 0.000159731C9.25278 -0.0443248 0 9.20846 0 20.641C0 32.029 9.25278 41.2818 20.6408 41.2818C25.8233 41.2818 30.4941 39.369 34.1196 36.2995C33.3412 35.7657 32.6294 34.8093 32.0289 33.4303C31.8064 32.941 31.5395 32.2514 31.2504 31.3395C30.9612 30.4276 30.6498 29.3377 30.294 27.9809C28.8927 30.6945 27.4247 32.7853 25.9345 34.1865C24.0217 35.9214 21.7974 36.8111 19.1728 36.8111C16.2591 36.8111 13.9014 35.5878 12.0108 33.1856C10.2759 30.9614 9.43072 28.3813 9.43072 25.3786C9.43072 21.5307 10.3427 18.1721 12.1888 15.3918C14.2351 12.1667 17.1265 10.5875 20.8632 10.5875C26.0012 10.5875 28.8037 13.8571 29.2931 20.3963L32.8296 11.2325H38.3234L31.2059 26.424C31.3838 27.069 31.6063 27.6473 31.9399 28.2923C32.2513 28.8929 32.6294 29.4267 33.0742 29.916C34.2086 31.1393 35.343 31.7399 36.4773 31.7399C37.2113 31.7399 37.8786 31.473 38.5236 30.9169C40.2807 27.9364 41.3261 24.3999 41.3261 20.641ZM24.8446 29.7603C26.9799 26.4907 28.0697 24.044 28.0697 22.4204C28.0697 20.2406 27.5804 18.4168 26.5795 16.882C25.3117 15.0582 23.6658 14.1685 21.7752 14.1685C19.2396 14.1685 17.1488 15.7477 15.6141 18.9728C14.3018 21.5974 13.6123 24.3332 13.6123 27.1357C13.6123 32.5406 15.1915 35.2542 18.3276 35.2542C20.1737 35.1429 22.398 33.3413 24.8446 29.7603Z" fill="url(#paint0_linear_3013_28370)"/>
<path d="M61.0307 15.3227C61.0307 16.5916 60.7902 17.6712 60.3091 18.5613C59.8319 19.4515 59.1803 20.1314 58.3546 20.6011C57.5326 21.067 56.6084 21.3 55.5819 21.3C54.5478 21.3 53.6197 21.0651 52.7978 20.5954C51.9758 20.1257 51.3262 19.4458 50.8489 18.5556C50.3716 17.6655 50.133 16.5878 50.133 15.3227C50.133 14.0537 50.3716 12.9742 50.8489 12.0841C51.3262 11.1939 51.9758 10.5159 52.7978 10.05C53.6197 9.58026 54.5478 9.34541 55.5819 9.34541C56.6084 9.34541 57.5326 9.58026 58.3546 10.05C59.1803 10.5159 59.8319 11.1939 60.3091 12.0841C60.7902 12.9742 61.0307 14.0537 61.0307 15.3227ZM58.5364 15.3227C58.5364 14.5007 58.4133 13.8075 58.1671 13.2431C57.9247 12.6787 57.5819 12.2507 57.1387 11.9591C56.6955 11.6674 56.1766 11.5216 55.5819 11.5216C54.9872 11.5216 54.4682 11.6674 54.025 11.9591C53.5819 12.2507 53.2372 12.6787 52.9909 13.2431C52.7485 13.8075 52.6273 14.5007 52.6273 15.3227C52.6273 16.1447 52.7485 16.8378 52.9909 17.4022C53.2372 17.9666 53.5819 18.3947 54.025 18.6863C54.4682 18.978 54.9872 19.1238 55.5819 19.1238C56.1766 19.1238 56.6955 18.978 57.1387 18.6863C57.5819 18.3947 57.9247 17.9666 58.1671 17.4022C58.4133 16.8378 58.5364 16.1447 58.5364 15.3227ZM69.3782 21.1409H65.2532V9.50451H69.4123C70.5827 9.50451 71.5903 9.73746 72.435 10.2034C73.2797 10.6655 73.9293 11.3303 74.3838 12.1977C74.8422 13.0651 75.0713 14.103 75.0713 15.3113C75.0713 16.5234 74.8422 17.5651 74.3838 18.4363C73.9293 19.3075 73.2759 19.9761 72.4236 20.442C71.5751 20.9079 70.56 21.1409 69.3782 21.1409ZM67.7134 19.0329H69.2759C70.0032 19.0329 70.6149 18.9041 71.1111 18.6466C71.6111 18.3852 71.9861 17.9818 72.2361 17.4363C72.4899 16.8871 72.6168 16.1787 72.6168 15.3113C72.6168 14.4515 72.4899 13.7488 72.2361 13.2034C71.9861 12.6579 71.613 12.2564 71.1168 11.9988C70.6206 11.7412 70.0088 11.6125 69.2816 11.6125H67.7134V19.0329ZM77.9088 9.50451H80.6645L83.3179 14.5159H83.4316L86.085 9.50451H88.8407L84.5963 17.0272V21.1409H82.1532V17.0272L77.9088 9.50451ZM98.8969 12.8511C98.8515 12.3928 98.6564 12.0367 98.3117 11.7829C97.967 11.5291 97.4992 11.4022 96.9083 11.4022C96.5068 11.4022 96.1677 11.4591 95.8912 11.5727C95.6147 11.6825 95.4026 11.8359 95.2549 12.0329C95.1109 12.2299 95.039 12.4534 95.039 12.7034C95.0314 12.9117 95.0749 13.0935 95.1696 13.2488C95.2681 13.4041 95.4026 13.5386 95.573 13.6522C95.7435 13.7621 95.9405 13.8587 96.164 13.942C96.3874 14.0216 96.6261 14.0897 96.8799 14.1466L97.9253 14.3966C98.4329 14.5102 98.8988 14.6617 99.323 14.8511C99.7473 15.0405 100.115 15.2734 100.425 15.55C100.736 15.8265 100.976 16.1522 101.147 16.5272C101.321 16.9022 101.41 17.3322 101.414 17.817C101.41 18.5291 101.228 19.1466 100.869 19.6693C100.512 20.1882 99.9973 20.5916 99.323 20.8795C98.6526 21.1636 97.8439 21.3056 96.8969 21.3056C95.9575 21.3056 95.1393 21.1617 94.4424 20.8738C93.7492 20.5859 93.2075 20.1598 92.8174 19.5954C92.431 19.0272 92.2284 18.3246 92.2094 17.4875H94.5901C94.6166 17.8776 94.7284 18.2034 94.9253 18.4647C95.1261 18.7223 95.3931 18.9174 95.7265 19.05C96.0636 19.1787 96.4443 19.2431 96.8685 19.2431C97.2852 19.2431 97.6469 19.1825 97.9537 19.0613C98.2643 18.9401 98.5049 18.7716 98.6753 18.5556C98.8458 18.3397 98.931 18.0916 98.931 17.8113C98.931 17.55 98.8534 17.3303 98.698 17.1522C98.5465 16.9742 98.323 16.8227 98.0276 16.6977C97.7359 16.5727 97.378 16.4591 96.9537 16.3568L95.6867 16.0386C94.7056 15.8 93.931 15.4269 93.3628 14.9193C92.7946 14.4117 92.5124 13.728 92.5162 12.8681C92.5124 12.1636 92.6999 11.5481 93.0787 11.0216C93.4613 10.495 93.9859 10.0841 94.6526 9.7886C95.3193 9.49314 96.0768 9.34541 96.9253 9.34541C97.789 9.34541 98.5427 9.49314 99.1867 9.7886C99.8344 10.0841 100.338 10.495 100.698 11.0216C101.058 11.5481 101.244 12.1579 101.255 12.8511H98.8969ZM111.781 12.8511C111.736 12.3928 111.541 12.0367 111.196 11.7829C110.851 11.5291 110.384 11.4022 109.793 11.4022C109.391 11.4022 109.052 11.4591 108.776 11.5727C108.499 11.6825 108.287 11.8359 108.139 12.0329C107.995 12.2299 107.923 12.4534 107.923 12.7034C107.916 12.9117 107.959 13.0935 108.054 13.2488C108.152 13.4041 108.287 13.5386 108.457 13.6522C108.628 13.7621 108.825 13.8587 109.048 13.942C109.272 14.0216 109.51 14.0897 109.764 14.1466L110.81 14.3966C111.317 14.5102 111.783 14.6617 112.207 14.8511C112.632 15.0405 112.999 15.2734 113.31 15.55C113.62 15.8265 113.861 16.1522 114.031 16.5272C114.206 16.9022 114.295 17.3322 114.298 17.817C114.295 18.5291 114.113 19.1466 113.753 19.6693C113.397 20.1882 112.882 20.5916 112.207 20.8795C111.537 21.1636 110.728 21.3056 109.781 21.3056C108.842 21.3056 108.024 21.1617 107.327 20.8738C106.634 20.5859 106.092 20.1598 105.702 19.5954C105.315 19.0272 105.113 18.3246 105.094 17.4875H107.474C107.501 17.8776 107.613 18.2034 107.81 18.4647C108.01 18.7223 108.277 18.9174 108.611 19.05C108.948 19.1787 109.329 19.2431 109.753 19.2431C110.17 19.2431 110.531 19.1825 110.838 19.0613C111.149 18.9401 111.389 18.7716 111.56 18.5556C111.73 18.3397 111.815 18.0916 111.815 17.8113C111.815 17.55 111.738 17.3303 111.582 17.1522C111.431 16.9742 111.207 16.8227 110.912 16.6977C110.62 16.5727 110.262 16.4591 109.838 16.3568L108.571 16.0386C107.59 15.8 106.815 15.4269 106.247 14.9193C105.679 14.4117 105.397 13.728 105.401 12.8681C105.397 12.1636 105.584 11.5481 105.963 11.0216C106.346 10.495 106.87 10.0841 107.537 9.7886C108.204 9.49314 108.961 9.34541 109.81 9.34541C110.673 9.34541 111.427 9.49314 112.071 9.7886C112.719 10.0841 113.223 10.495 113.582 11.0216C113.942 11.5481 114.128 12.1579 114.139 12.8511H111.781ZM118.353 21.1409V9.50451H126.194V11.5329H120.813V14.3056H125.791V16.3341H120.813V19.1125H126.217V21.1409H118.353ZM129.868 9.50451H132.624L135.277 14.5159H135.391L138.044 9.50451H140.8L136.556 17.0272V21.1409H134.113V17.0272L129.868 9.50451Z" fill="#4D545C"/>
<path d="M83.8743 30.3227V30.708H82.0522V30.3227H83.8743ZM82.6215 29.4079H83.0664V33.1441C83.0664 33.3032 83.0938 33.4283 83.1484 33.5194C83.2031 33.6089 83.2744 33.6727 83.3622 33.7108C83.4501 33.7473 83.5437 33.7655 83.6431 33.7655C83.7011 33.7655 83.7508 33.7622 83.7923 33.7556C83.8337 33.7473 83.8702 33.739 83.9016 33.7307L83.9961 34.1309C83.953 34.1475 83.9 34.1624 83.837 34.1757C83.774 34.1906 83.6962 34.198 83.6033 34.198C83.4409 34.198 83.2843 34.1624 83.1335 34.0912C82.9844 34.0199 82.8618 33.9138 82.7656 33.773C82.6695 33.6321 82.6215 33.4573 82.6215 33.2485V29.4079ZM85.5792 34.1409V30.3227H86.0092V30.9093H86.0415C86.1178 30.7171 86.2503 30.5622 86.4393 30.4445C86.6298 30.3252 86.8453 30.2655 87.0856 30.2655C87.122 30.2655 87.1626 30.2663 87.2074 30.268C87.2521 30.2697 87.2894 30.2713 87.3192 30.273V30.7229C87.2994 30.7196 87.2646 30.7146 87.2148 30.708C87.1651 30.7014 87.1113 30.698 87.0533 30.698C86.8544 30.698 86.6771 30.7403 86.5213 30.8248C86.3672 30.9077 86.2454 31.0229 86.1559 31.1703C86.0664 31.3178 86.0217 31.486 86.0217 31.675V34.1409H85.5792ZM89.8407 34.2279C89.6104 34.2279 89.3999 34.1831 89.2093 34.0936C89.0187 34.0025 88.8671 33.8716 88.7544 33.7009C88.6417 33.5285 88.5854 33.3197 88.5854 33.0745C88.5854 32.8855 88.621 32.7265 88.6923 32.5972C88.7635 32.4679 88.8646 32.3619 88.9955 32.279C89.1265 32.1961 89.2814 32.1307 89.4604 32.0826C89.6394 32.0346 89.8366 31.9973 90.052 31.9708C90.2658 31.9443 90.4464 31.9211 90.5939 31.9012C90.7431 31.8813 90.8566 31.8498 90.9345 31.8067C91.0123 31.7636 91.0513 31.694 91.0513 31.5979V31.5084C91.0513 31.2482 90.9734 31.0436 90.8176 30.8944C90.6635 30.7436 90.4414 30.6682 90.1514 30.6682C89.8763 30.6682 89.6518 30.7287 89.4778 30.8497C89.3054 30.9707 89.1845 31.1132 89.1149 31.2772L88.6948 31.1256C88.7809 30.9168 88.9002 30.7502 89.0527 30.626C89.2052 30.5 89.3759 30.4097 89.5648 30.355C89.7537 30.2987 89.9451 30.2705 90.139 30.2705C90.2848 30.2705 90.4365 30.2895 90.5939 30.3277C90.753 30.3658 90.9005 30.4321 91.0364 30.5265C91.1723 30.6193 91.2825 30.7494 91.367 30.9168C91.4515 31.0825 91.4938 31.293 91.4938 31.5482V34.1409H91.0513V33.5368H91.0239C90.9709 33.6495 90.8922 33.7589 90.7878 33.8649C90.6834 33.971 90.5525 34.058 90.395 34.126C90.2376 34.1939 90.0528 34.2279 89.8407 34.2279ZM89.9004 33.8227C90.1357 33.8227 90.3395 33.7705 90.5119 33.6661C90.6842 33.5617 90.8168 33.4233 90.9096 33.251C91.0041 33.0769 91.0513 32.8855 91.0513 32.6767V32.1249C91.0181 32.1564 90.9626 32.1845 90.8847 32.2094C90.8085 32.2343 90.7199 32.2566 90.6188 32.2765C90.5193 32.2948 90.4199 32.3105 90.3205 32.3238C90.221 32.337 90.1315 32.3486 90.052 32.3586C89.8366 32.3851 89.6526 32.4265 89.5002 32.4828C89.3477 32.5392 89.2309 32.6171 89.1497 32.7165C89.0685 32.8143 89.0279 32.9402 89.0279 33.0943C89.0279 33.3264 89.1107 33.5062 89.2764 33.6338C89.4422 33.7597 89.6501 33.8227 89.9004 33.8227ZM94.8623 34.2204C94.5209 34.2204 94.2234 34.1351 93.9699 33.9644C93.718 33.7937 93.5224 33.56 93.3832 33.2634C93.244 32.9667 93.1744 32.6287 93.1744 32.2492C93.1744 31.8664 93.2448 31.5258 93.3857 31.2275C93.5282 30.9292 93.7254 30.6956 93.9773 30.5265C94.2292 30.3558 94.5217 30.2705 94.8548 30.2705C95.11 30.2705 95.3412 30.3202 95.5483 30.4196C95.7555 30.5174 95.9262 30.6558 96.0604 30.8348C96.1963 31.0121 96.2816 31.2192 96.3165 31.4562H95.869C95.8226 31.2408 95.7107 31.0568 95.5334 30.9044C95.3578 30.7502 95.134 30.6732 94.8623 30.6732C94.6187 30.6732 94.4032 30.7395 94.216 30.872C94.0287 31.003 93.882 31.1861 93.776 31.4214C93.6716 31.6551 93.6194 31.926 93.6194 32.2343C93.6194 32.5442 93.6707 32.8184 93.7735 33.0571C93.8762 33.294 94.0204 33.4796 94.206 33.6139C94.3933 33.7481 94.612 33.8152 94.8623 33.8152C95.0313 33.8152 95.1854 33.7837 95.3246 33.7208C95.4655 33.6561 95.5831 33.565 95.6776 33.4473C95.7737 33.3297 95.8383 33.1896 95.8715 33.0272H96.3189C96.2858 33.2576 96.2038 33.4631 96.0728 33.6437C95.9436 33.8227 95.7754 33.9635 95.5682 34.0663C95.3627 34.169 95.1274 34.2204 94.8623 34.2204ZM98.37 32.6991L98.365 32.1199H98.4644L100.254 30.3227H100.814L99.0461 32.0926L99.0063 32.1L98.37 32.6991ZM97.9673 34.1409V29.05H98.4097V34.1409H97.9673ZM100.346 34.1409L98.795 32.1796L99.1132 31.8738L100.913 34.1409H100.346ZM103.731 34.2204C103.375 34.2204 103.067 34.1376 102.807 33.9718C102.547 33.8045 102.345 33.5733 102.203 33.2783C102.062 32.9817 101.991 32.6403 101.991 32.2542C101.991 31.8697 102.062 31.5283 102.203 31.23C102.345 30.93 102.542 30.6956 102.792 30.5265C103.044 30.3558 103.335 30.2705 103.664 30.2705C103.871 30.2705 104.071 30.3086 104.263 30.3848C104.456 30.4594 104.628 30.5746 104.78 30.7304C104.935 30.8845 105.056 31.0792 105.146 31.3145C105.235 31.5482 105.28 31.8249 105.28 32.1448V32.3635H102.297V31.9733H104.828C104.828 31.728 104.778 31.5076 104.679 31.312C104.581 31.1148 104.444 30.9591 104.268 30.8447C104.094 30.7304 103.893 30.6732 103.664 30.6732C103.422 30.6732 103.209 30.7378 103.025 30.8671C102.842 30.9963 102.697 31.167 102.593 31.3792C102.49 31.5913 102.438 31.8233 102.436 32.0752V32.3088C102.436 32.6121 102.489 32.8773 102.593 33.1043C102.699 33.3297 102.849 33.5045 103.043 33.6288C103.237 33.7531 103.466 33.8152 103.731 33.8152C103.912 33.8152 104.07 33.7871 104.206 33.7307C104.344 33.6744 104.459 33.599 104.552 33.5045C104.646 33.4084 104.717 33.3032 104.766 33.1888L105.186 33.3255C105.128 33.4863 105.032 33.6346 104.9 33.7705C104.769 33.9064 104.605 34.0158 104.408 34.0986C104.212 34.1798 103.987 34.2204 103.731 34.2204ZM106.955 34.1409V30.3227H107.385V30.9093H107.418C107.494 30.7171 107.626 30.5622 107.815 30.4445C108.006 30.3252 108.221 30.2655 108.462 30.2655C108.498 30.2655 108.539 30.2663 108.583 30.268C108.628 30.2697 108.665 30.2713 108.695 30.273V30.7229C108.675 30.7196 108.641 30.7146 108.591 30.708C108.541 30.7014 108.487 30.698 108.429 30.698C108.23 30.698 108.053 30.7403 107.897 30.8248C107.743 30.9077 107.621 31.0229 107.532 31.1703C107.442 31.3178 107.398 31.486 107.398 31.675V34.1409H106.955Z" fill="#4D545C"/>
<defs>
<linearGradient id="paint0_linear_3013_28370" x1="-0.0133454" y1="20.6337" x2="41.3226" y2="20.6337" gradientUnits="userSpaceOnUse">
<stop stop-color="#7F963B"/>
<stop offset="1" stop-color="#A3BF69"/>
</linearGradient>
</defs>
</svg>
