<svg width="42" height="42" viewBox="0 0 42 42" fill="none" xmlns="http://www.w3.org/2000/svg">
<path d="M41.3261 20.641C41.3261 9.25294 32.0733 0.000159731 20.6853 0.000159731C9.25278 -0.0443248 0 9.20846 0 20.641C0 32.029 9.25278 41.2818 20.6408 41.2818C25.8233 41.2818 30.4941 39.369 34.1196 36.2995C33.3412 35.7657 32.6294 34.8093 32.0289 33.4303C31.8064 32.941 31.5395 32.2514 31.2504 31.3395C30.9612 30.4276 30.6498 29.3377 30.294 27.9809C28.8927 30.6945 27.4247 32.7853 25.9345 34.1865C24.0217 35.9214 21.7974 36.8111 19.1728 36.8111C16.2591 36.8111 13.9014 35.5878 12.0108 33.1856C10.2759 30.9614 9.43072 28.3813 9.43072 25.3786C9.43072 21.5307 10.3427 18.1721 12.1888 15.3918C14.2351 12.1667 17.1265 10.5875 20.8632 10.5875C26.0012 10.5875 28.8037 13.8571 29.2931 20.3963L32.8296 11.2325H38.3234L31.2059 26.424C31.3838 27.069 31.6063 27.6473 31.9399 28.2923C32.2513 28.8929 32.6294 29.4267 33.0742 29.916C34.2086 31.1393 35.343 31.7399 36.4773 31.7399C37.2113 31.7399 37.8786 31.473 38.5236 30.9169C40.2807 27.9364 41.3261 24.3999 41.3261 20.641ZM24.8446 29.7603C26.9799 26.4907 28.0697 24.044 28.0697 22.4204C28.0697 20.2406 27.5804 18.4168 26.5795 16.882C25.3117 15.0582 23.6658 14.1685 21.7752 14.1685C19.2396 14.1685 17.1488 15.7477 15.6141 18.9728C14.3018 21.5974 13.6123 24.3332 13.6123 27.1357C13.6123 32.5406 15.1915 35.2542 18.3276 35.2542C20.1737 35.1429 22.398 33.3413 24.8446 29.7603Z" fill="url(#paint0_linear_2366_11112)"/>
<defs>
<linearGradient id="paint0_linear_2366_11112" x1="-0.0133454" y1="20.6337" x2="41.3226" y2="20.6337" gradientUnits="userSpaceOnUse">
<stop stop-color="#7F963B"/>
<stop offset="1" stop-color="#A3BF69"/>
</linearGradient>
</defs>
</svg>
