<svg width="131" height="44" viewBox="0 0 131 44" fill="none" xmlns="http://www.w3.org/2000/svg">
<path d="M101.87 31.2727C101.915 30.6277 102.36 30.1829 102.916 30.1829C103.561 30.1829 103.872 30.6722 103.917 31.2727H101.87ZM102.96 32.8742C103.494 32.8742 103.828 32.6517 104.095 32.3403L103.917 32.1624C103.694 32.3848 103.383 32.6073 102.96 32.6073C102.426 32.6073 101.915 32.2069 101.87 31.5174H104.184C104.184 31.4729 104.184 31.4729 104.184 31.4284C104.184 30.6054 103.694 29.9827 102.916 29.9827C102.137 29.9827 101.603 30.6277 101.603 31.4284C101.559 32.2736 102.182 32.8742 102.96 32.8742ZM99.09 32.8742C99.268 32.8742 99.4014 32.8297 99.5349 32.7852V32.5183C99.357 32.6073 99.268 32.6073 99.1345 32.6073C98.8231 32.6073 98.6007 32.4738 98.6007 32.0734V30.2496H99.6016V30.0272H98.6007V29.1152H98.3338V30.0272H97.9112V30.2496H98.3116V32.0734C98.3338 32.6295 98.6452 32.8742 99.09 32.8742ZM95.3756 32.8297H95.6425V30.0272H95.3756V32.8297ZM95.3311 29.2709H95.6425V28.915H95.3311V29.2709ZM90.4823 32.8297H90.7492V31.206C90.7492 30.6054 91.1496 30.2051 91.7056 30.2051C92.2394 30.2051 92.6176 30.561 92.6176 31.1615V32.8297H92.8845V31.0948C92.8845 30.4053 92.4841 29.9604 91.7501 29.9604C91.2608 29.9604 90.9271 30.2273 90.7492 30.561V30.0716H90.4823V32.8297ZM86.7234 32.6295C86.323 32.6295 85.9004 32.4071 85.9004 31.9845C85.9004 31.5841 86.2118 31.3394 86.8123 31.3394C87.2127 31.3394 87.5463 31.3839 87.7687 31.4729V31.7843C87.8132 32.2736 87.3017 32.6295 86.7234 32.6295ZM86.7234 32.8742C87.2572 32.8742 87.5908 32.6073 87.8132 32.3403V32.7852H88.0801V31.0503C88.0801 30.6944 87.9912 30.4498 87.8132 30.2718C87.6353 30.0939 87.3239 29.9604 86.9458 29.9604C86.5899 29.9604 86.2563 30.0494 85.9449 30.1829L86.0338 30.4053C86.3007 30.2718 86.5677 30.1829 86.9013 30.1829C87.5018 30.1829 87.8132 30.4498 87.8132 31.0503V31.1838C87.5463 31.0948 87.2794 31.0503 86.9013 31.0503C86.1673 31.0503 85.678 31.3617 85.678 31.9622C85.6335 32.585 86.1673 32.8742 86.7234 32.8742ZM82.3194 32.8297H82.5863V31.6953C82.5863 30.7834 83.1201 30.2941 83.8096 30.2941H83.8541V29.9827C83.3203 29.9827 82.8532 30.2941 82.6308 30.8056V29.9827H82.3639V32.8519H82.3194V32.8297ZM78.4047 32.3181C77.8042 32.3181 77.3149 31.8733 77.3149 31.2282C77.3149 30.5832 77.8042 30.1829 78.4047 30.1829C79.0053 30.1829 79.5391 30.5832 79.5391 31.2282C79.5836 31.9177 79.0053 32.3181 78.4047 32.3181ZM78.4492 33.6749C78.8496 33.6749 79.2277 33.5414 79.4501 33.319C79.6726 33.0966 79.806 32.7852 79.806 32.3626V30.0049H79.5391V30.5387C79.3167 30.2273 78.9386 29.8937 78.3603 29.8937C77.6707 29.8937 77.0035 30.383 77.0035 31.206C77.0035 32.029 77.693 32.5183 78.3603 32.5183C78.8941 32.5183 79.2722 32.2069 79.5391 31.8733V32.2736C79.5391 33.0076 79.0943 33.3635 78.4492 33.3635C78.0489 33.3635 77.6263 33.23 77.3149 32.9631L77.1369 33.1856C77.5373 33.5414 78.0044 33.6749 78.4492 33.6749Z" fill="white"/>
<path d="M121.422 19.7956L122.956 16.0812L124.491 19.7956H121.422ZM116.884 24.5555H119.464L120.51 21.9754H125.358L126.404 24.5555H129.028L124.135 12.9895H121.777L116.884 24.5555ZM100.825 24.5555H103.361V19.9291H108.032V24.5555H110.567V13.0785H108.032V17.6159H103.361V13.0785H100.825V24.5555ZM87.8135 18.8837V15.3917H89.7709C91.0387 15.3917 91.8171 15.9922 91.8171 17.1266V17.1711C91.8171 18.172 91.0831 18.9059 89.8153 18.9059L87.8135 18.8837ZM85.2779 24.5555H87.8135V21.1079H89.7264C92.3065 21.1079 94.3528 19.7512 94.3528 17.0598V17.0154C94.3528 14.6577 92.6846 13.0785 89.9488 13.0785H85.2779V24.5555ZM70.5313 24.5555H78.7832V22.2423H73.0669V13.0785H70.5313V24.5555ZM56.5409 19.7956L58.0756 16.0812L59.6103 19.7956H56.5409ZM52.0035 24.5555H54.6058L55.6512 21.9754H60.5L61.5454 24.5555H64.17L59.2767 12.9895H56.9635L52.0035 24.5555Z" fill="white"/>
<path d="M42.5495 21.5751C42.5495 10.187 33.2967 0.934242 21.9086 0.934242C10.4761 0.889757 1.22333 10.1425 1.22333 21.5751C1.22333 32.9631 10.4761 42.2159 21.8642 42.2159C27.0466 42.2159 31.7175 40.3031 35.343 37.2336C34.5645 36.6998 33.8527 35.7434 33.2522 34.3644C33.0298 33.875 32.7629 33.1855 32.4737 32.2736C32.1846 31.3617 31.8732 30.2718 31.5173 28.915C30.116 31.6286 28.648 33.7193 27.1578 35.1206C25.245 36.8555 23.0207 37.7452 20.3962 37.7452C17.4824 37.7452 15.1247 36.5219 13.2342 34.1197C11.4993 31.8955 10.654 29.3154 10.654 26.3127C10.654 22.4648 11.566 19.1062 13.4121 16.3259C15.4584 13.1008 18.3499 11.5216 22.0866 11.5216C27.2245 11.5216 30.0271 14.7912 30.5164 21.3304L34.0529 12.1666H39.5468L32.4292 27.3581C32.6072 28.0031 32.8296 28.5814 33.1632 29.2264C33.4746 29.8269 33.8527 30.3608 34.2976 30.8501C35.4319 32.0734 36.5663 32.674 37.7006 32.674C38.4346 32.674 39.1019 32.407 39.7469 31.851C41.5041 28.8705 42.5495 25.334 42.5495 21.5751ZM26.0679 30.6944C28.2032 27.4248 29.2931 24.9781 29.2931 23.3544C29.2931 21.1747 28.8037 19.3508 27.8028 17.8161C26.535 15.9923 24.8891 15.1026 22.9985 15.1026C20.4629 15.1026 18.3721 16.6818 16.8374 19.9069C15.5251 22.5315 14.8356 25.2673 14.8356 28.0698C14.8356 33.4747 16.4148 36.1882 19.551 36.1882C21.3971 36.077 23.6213 34.2754 26.0679 30.6944Z" fill="white"/>
</svg>
