<svg width="131" height="44" viewBox="0 0 131 44" fill="none" xmlns="http://www.w3.org/2000/svg">
<path d="M114.675 31.3568C114.72 30.71 115.164 30.264 115.72 30.264C116.365 30.264 116.677 30.7546 116.721 31.3568H114.675ZM115.765 32.9625C116.299 32.9625 116.632 32.7395 116.899 32.4273L116.721 32.2489C116.499 32.4719 116.187 32.6949 115.765 32.6949C115.231 32.6949 114.72 32.2935 114.675 31.6021H116.988C116.988 31.5575 116.988 31.5575 116.988 31.5129C116.988 30.6877 116.499 30.0633 115.72 30.0633C114.942 30.0633 114.408 30.71 114.408 31.5129C114.408 32.3604 115.053 32.9625 115.765 32.9625ZM111.828 32.9179H112.095V28.9036H111.828V32.9179ZM108.959 32.9179H109.226V30.1079H108.959V32.9179ZM108.915 29.3496H109.226V28.9928H108.915V29.3496ZM106.201 32.9625C106.379 32.9625 106.513 32.9179 106.646 32.8733V32.6057C106.513 32.6949 106.379 32.6949 106.246 32.6949C105.934 32.6949 105.712 32.5611 105.712 32.1597V30.3309H106.713V30.1079H105.712V29.1935H105.423V30.1079H105.022V30.3309H105.423V32.1597C105.378 32.7172 105.756 32.9625 106.201 32.9625ZM97.7718 32.6726C97.238 32.6726 96.8599 32.3158 96.8599 31.8474C96.8599 31.4906 97.1268 31.1115 97.7273 30.8884L98.8616 32.0705C98.5725 32.4496 98.2166 32.6726 97.7718 32.6726ZM97.9053 30.6431C97.5939 30.2863 97.4604 30.1079 97.4604 29.8626C97.4604 29.5057 97.7273 29.2158 98.1499 29.2158C98.5058 29.2158 98.7504 29.4834 98.7504 29.818C98.7059 30.1748 98.439 30.4424 97.9053 30.6431ZM99.7068 32.9625L99.9292 32.7841L99.1952 32.0482C99.4176 31.7805 99.5956 31.4014 99.7957 31.0446L99.5289 30.9554C99.3954 31.3122 99.2175 31.6467 99.0395 31.9143L98.0387 30.8661C98.6392 30.6877 98.9951 30.3755 98.9951 29.8626C98.9951 29.4165 98.6392 29.0374 98.1277 29.0374C97.5939 29.0374 97.1713 29.3942 97.1713 29.9072C97.1713 30.2194 97.3047 30.4424 97.5716 30.7769C96.9267 31 96.5708 31.3791 96.5708 31.9143C96.5708 32.5611 97.0601 32.9625 97.7496 32.9625C98.2389 32.9625 98.7059 32.7395 99.0618 32.2712L99.7068 32.9625ZM89.1423 31.3568C89.1867 30.71 89.6316 30.264 90.1876 30.264C90.8326 30.264 91.144 30.7546 91.1884 31.3568H89.1423ZM90.2321 32.9625C90.7659 32.9625 91.0995 32.7395 91.3664 32.4273L91.1884 32.2489C90.966 32.4719 90.6547 32.6949 90.2321 32.6949C89.6983 32.6949 89.1867 32.2935 89.1423 31.6021H91.4553C91.4553 31.5575 91.4553 31.5575 91.4553 31.5129C91.4553 30.6877 90.966 30.0633 90.1876 30.0633C89.4092 30.0633 88.8754 30.71 88.8754 31.5129C88.8309 32.3604 89.4536 32.9625 90.2321 32.9625ZM86.3621 32.9625C86.5401 32.9625 86.6735 32.9179 86.8069 32.8733V32.6057C86.629 32.6949 86.5401 32.6949 86.4066 32.6949C86.0952 32.6949 85.8728 32.5611 85.8728 32.1597V30.3309H86.8737V30.1079H85.8728V29.1935H85.6059V30.1079H85.1834V30.3309H85.5837V32.1597C85.6059 32.7172 85.9173 32.9625 86.3621 32.9625ZM82.6479 32.9179H82.9148V30.1079H82.6479V32.9179ZM82.6034 29.3496H82.9148V28.9928H82.6034V29.3496ZM77.7548 32.9179H78.0217V31.2899C78.0217 30.6877 78.4221 30.2863 78.9781 30.2863C79.5119 30.2863 79.89 30.6431 79.89 31.2453V32.9179H80.1569V31.1784C80.1569 30.487 79.7565 30.041 79.0226 30.041C78.5333 30.041 78.1997 30.3086 78.0217 30.6431V30.1525H77.7548V32.9179ZM73.9961 32.7172C73.5958 32.7172 73.1732 32.4942 73.1732 32.0705C73.1732 31.669 73.4845 31.4237 74.0851 31.4237C74.4854 31.4237 74.819 31.4683 75.0414 31.5575V31.8697C75.0859 32.3604 74.5744 32.7172 73.9961 32.7172ZM73.9961 32.9625C74.5299 32.9625 74.8635 32.6949 75.0859 32.4273V32.8733H75.3528V31.1338C75.3528 30.7769 75.2638 30.5316 75.0859 30.3532C74.908 30.1748 74.5966 30.041 74.2185 30.041C73.8626 30.041 73.529 30.1302 73.2177 30.264L73.3066 30.487C73.5735 30.3532 73.8404 30.264 74.174 30.264C74.7745 30.264 75.0859 30.5316 75.0859 31.1338V31.2676C74.819 31.1784 74.5521 31.1338 74.174 31.1338C73.4401 31.1338 72.9508 31.446 72.9508 32.0482C72.9063 32.6726 73.4401 32.9625 73.9961 32.9625ZM69.5924 32.9179H69.8592V31.7805C69.8592 30.8661 70.393 30.3755 71.0825 30.3755H71.127V30.0633C70.5932 30.0633 70.1261 30.3755 69.9037 30.8884V30.0633H69.6368V32.9402H69.5924V32.9179ZM65.6779 32.405C65.0774 32.405 64.5881 31.9589 64.5881 31.3122C64.5881 30.6654 65.0774 30.264 65.6779 30.264C66.2784 30.264 66.8122 30.6654 66.8122 31.3122C66.8567 32.0036 66.2784 32.405 65.6779 32.405ZM65.7224 33.7654C66.1227 33.7654 66.5008 33.6316 66.7233 33.4086C66.9457 33.1856 67.0791 32.8733 67.0791 32.4496V30.0856H66.8122V30.6208C66.5898 30.3086 66.2117 29.9741 65.6334 29.9741C64.944 29.9741 64.2767 30.4647 64.2767 31.2899C64.2767 32.1151 64.9662 32.6057 65.6334 32.6057C66.1672 32.6057 66.5453 32.2935 66.8122 31.9589V32.3604C66.8122 33.0964 66.3674 33.4532 65.7224 33.4532C65.3221 33.4532 64.8995 33.3194 64.5881 33.0518L64.4102 33.2748C64.8105 33.6316 65.2776 33.7654 65.7224 33.7654Z" fill="white"/>
<path d="M121.525 19.8489L123.06 16.1244L124.595 19.8489H121.525ZM116.988 24.6215H119.568L120.613 22.0345H125.462L126.507 24.6215H129.132L124.239 13.0244H121.881L116.988 24.6215ZM100.93 24.6215H103.466V19.9827H108.136V24.6215H110.672V13.1136H108.136V17.6633H103.466V13.1136H100.93V24.6215ZM87.919 18.9345V15.433H89.8762C91.144 15.433 91.9224 16.0352 91.9224 17.1726V17.2172C91.9224 18.2208 91.1884 18.9568 89.9207 18.9568L87.919 18.9345ZM85.3835 24.6215H87.919V21.1647H89.8317C92.4117 21.1647 94.4579 19.8043 94.4579 17.1057V17.0611C94.4579 14.6971 92.7898 13.1136 90.0541 13.1136H85.3835V24.6215ZM70.6377 24.6215H78.8891V22.3021H73.1732V13.1136H70.6377V24.6215ZM56.648 19.8489L58.1827 16.1244L59.7173 19.8489H56.648ZM52.1108 24.6215H54.713L55.7584 22.0345H60.6069L61.6523 24.6215H64.2767L59.3837 13.0244H57.0706L52.1108 24.6215Z" fill="white"/>
<path d="M42.5472 21.633C42.5472 10.2143 33.2949 0.936684 21.9075 0.936684C10.4756 0.892079 1.22327 10.1697 1.22327 21.633C1.22327 33.0517 10.4756 42.3294 21.863 42.3294C27.0452 42.3294 31.7158 40.4114 35.3411 37.3337C34.5627 36.7984 33.8509 35.8395 33.2504 34.4567C33.028 33.9661 32.7611 33.2747 32.472 32.3603C32.1829 31.4459 31.8715 30.3531 31.5156 28.9927C30.1144 31.7136 28.6465 33.81 27.1564 35.215C25.2436 36.9546 23.0195 37.8466 20.3951 37.8466C17.4815 37.8466 15.1239 36.62 13.2335 34.2114C11.4986 31.9812 10.6535 29.3941 10.6535 26.3834C10.6535 22.5251 11.5654 19.1575 13.4114 16.3697C15.4576 13.1359 18.3489 11.5525 22.0854 11.5525C27.2231 11.5525 30.0255 14.8309 30.5148 21.3877L34.0511 12.1992H39.5447L32.4275 27.4316C32.6054 28.0783 32.8279 28.6582 33.1615 29.3049C33.4728 29.9071 33.8509 30.4423 34.2958 30.933C35.4301 32.1596 36.5644 32.7618 37.6987 32.7618C38.4326 32.7618 39.0998 32.4941 39.7448 31.9366C41.5019 28.9481 42.5472 25.4021 42.5472 21.633ZM26.0666 30.7769C28.2017 27.4985 29.2915 25.0452 29.2915 23.4172C29.2915 21.2316 28.8022 19.4028 27.8014 17.864C26.5336 16.0352 24.8878 15.1431 22.9973 15.1431C20.4618 15.1431 18.3711 16.7266 16.8365 19.9604C15.5243 22.592 14.8348 25.3352 14.8348 28.1452C14.8348 33.5646 16.4139 36.2855 19.5499 36.2855C21.3959 36.174 23.62 34.3675 26.0666 30.7769Z" fill="white"/>
</svg>
