<svg width="10" height="9" viewBox="0 0 10 9" fill="none" xmlns="http://www.w3.org/2000/svg">
<path d="M3.49505 6.844V5.808H2.45905C1.88505 5.808 1.45105 6.27 1.45105 6.844C1.45105 7.418 1.89905 7.894 2.47305 7.894C3.04705 7.894 3.49505 7.418 3.49505 6.844ZM3.49505 2.854V1.804C3.49505 1.23 3.06105 0.768 2.48705 0.768C1.91305 0.768 1.45105 1.23 1.45105 1.804C1.45105 2.378 1.91305 2.854 2.48705 2.854H3.49505ZM4.04105 5.29H5.95905V3.372H4.04105V5.29ZM8.53506 6.844C8.53506 6.27 8.11506 5.808 7.52705 5.808H6.50505V6.844C6.50505 7.418 6.95305 7.894 7.52705 7.894C8.10105 7.894 8.53506 7.418 8.53506 6.844ZM8.53506 1.804C8.53506 1.23 8.10105 0.768 7.52705 0.768C6.95305 0.768 6.50505 1.23 6.50505 1.804V2.854H7.52705C8.10105 2.854 8.53506 2.378 8.53506 1.804ZM9.08105 6.844C9.08105 7.698 8.38106 8.412 7.52705 8.412C6.67305 8.412 5.95905 7.698 5.95905 6.844V5.808H4.04105V6.844C4.04105 7.698 3.32705 8.412 2.47305 8.412C1.61905 8.412 0.919055 7.698 0.919055 6.844C0.919055 5.99 1.61905 5.29 2.47305 5.29H3.49505V3.372H2.48705C1.63305 3.372 0.919055 2.658 0.919055 1.804C0.919055 0.949999 1.63305 0.25 2.48705 0.25C3.34105 0.25 4.04105 0.949999 4.04105 1.804V2.854H5.95905V1.804C5.95905 0.949999 6.67305 0.25 7.52705 0.25C8.38106 0.25 9.08105 0.949999 9.08105 1.804C9.08105 2.658 8.38106 3.372 7.52705 3.372H6.50505V5.29H7.52705C8.38106 5.29 9.08105 5.99 9.08105 6.844Z" fill="#78829D"/>
</svg>
