<svg width="23" height="18" viewBox="0 0 23 18" fill="none" xmlns="http://www.w3.org/2000/svg">
<path d="M22.0068 0.36832C21.6406 0.00222658 21.0472 0.00222658 20.6809 0.36832L6.04557 15.0037L1.98264 8.5031C1.70814 8.06398 1.12979 7.93057 0.690761 8.20498C0.251636 8.47938 0.118231 9.05782 0.392637 9.49685L5.08014 16.9968C5.15491 17.1164 5.25569 17.2176 5.37497 17.2928C5.49426 17.3681 5.62898 17.4154 5.76911 17.4314C5.90923 17.4473 6.05115 17.4315 6.1843 17.385C6.31745 17.3385 6.4384 17.2626 6.53814 17.1629L22.0069 1.69413C22.373 1.32804 22.373 0.734414 22.0068 0.36832Z" fill="white"/>
</svg>
