<svg width="20" height="20" viewBox="0 0 20 20" fill="none" xmlns="http://www.w3.org/2000/svg">
<g opacity="0.7">
<path opacity="0.1" d="M7.35061 9.39457H3.2109C2.66475 9.38373 2.14464 9.15914 1.76227 8.76903C1.3799 8.37892 1.16577 7.85441 1.16588 7.30816V3.16845C1.17457 2.62085 1.39822 2.09863 1.78856 1.71449C2.1789 1.33035 2.70463 1.11508 3.25229 1.11515H7.392C7.94535 1.11515 8.47604 1.33497 8.86732 1.72625C9.2586 2.11752 9.47842 2.64821 9.47842 3.20156V7.34127C9.47411 7.61599 9.41559 7.88714 9.30621 8.13918C9.19684 8.39121 9.03876 8.61916 8.84105 8.80994C8.64335 9.00073 8.40991 9.15058 8.15414 9.25091C7.89836 9.35123 7.6253 9.40005 7.35061 9.39457ZM16.8388 9.39457H12.6991C12.1458 9.39457 11.6151 9.17475 11.2238 8.78347C10.8325 8.3922 10.6127 7.86151 10.6127 7.30816V3.16845C10.6127 2.61509 10.8325 2.08441 11.2238 1.69313C11.6151 1.30185 12.1458 1.08203 12.6991 1.08203H16.8388C17.3922 1.08203 17.9229 1.30185 18.3141 1.69313C18.7054 2.08441 18.9252 2.61509 18.9252 3.16845V7.30816C18.9253 7.85441 18.7112 8.37892 18.3288 8.76903C17.9465 9.15914 17.4264 9.38373 16.8802 9.39457H16.8388ZM16.7891 18.9159H12.7736C12.2203 18.9159 11.6896 18.6961 11.2983 18.3048C10.907 17.9135 10.6872 17.3828 10.6872 16.8295V12.6898C10.6872 12.1364 10.907 11.6057 11.2983 11.2145C11.6896 10.8232 12.2203 10.6034 12.7736 10.6034H16.8719C17.4253 10.6034 17.956 10.8232 18.3473 11.2145C18.7385 11.6057 18.9584 12.1364 18.9584 12.6898V16.8295C18.9584 17.3828 18.7385 17.9135 18.3473 18.3048C17.956 18.6961 17.4253 18.9159 16.8719 18.9159H16.7891ZM7.26781 18.9159H3.1281C2.57475 18.9159 2.04406 18.6961 1.65278 18.3048C1.26151 17.9135 1.04169 17.3828 1.04169 16.8295V12.6898C1.04169 12.1364 1.26151 11.6057 1.65278 11.2145C2.04406 10.8232 2.57475 10.6034 3.1281 10.6034H7.26781C7.82116 10.6034 8.35185 10.8232 8.74313 11.2145C9.13441 11.6057 9.35423 12.1364 9.35423 12.6898V16.8295C9.35465 17.3688 9.14623 17.8873 8.77269 18.2763C8.39914 18.6653 7.88948 18.8945 7.35061 18.9159H7.26781Z" fill="white"/>
<path d="M7.35061 9.39457H3.2109C2.66475 9.38373 2.14464 9.15914 1.76227 8.76903C1.3799 8.37892 1.16577 7.85441 1.16588 7.30816V3.16845C1.17457 2.62085 1.39822 2.09863 1.78856 1.71449C2.1789 1.33035 2.70463 1.11508 3.25229 1.11515H7.392C7.94536 1.11515 8.47604 1.33497 8.86732 1.72625C9.2586 2.11752 9.47842 2.64821 9.47842 3.20156V7.34127C9.47411 7.61599 9.41559 7.88714 9.30621 8.13918C9.19684 8.39121 9.03876 8.61916 8.84105 8.80994C8.64335 9.00073 8.40991 9.15058 8.15414 9.25091C7.89837 9.35123 7.6253 9.40005 7.35061 9.39457ZM3.2109 2.35706C2.99131 2.35706 2.78072 2.44429 2.62545 2.59956C2.47018 2.75483 2.38295 2.96542 2.38295 3.185V7.32472C2.38295 7.5443 2.47018 7.75489 2.62545 7.91016C2.78072 8.06543 2.99131 8.15266 3.2109 8.15266H7.35061C7.57019 8.15266 7.78078 8.06543 7.93605 7.91016C8.09132 7.75489 8.17855 7.5443 8.17855 7.32472V3.185C8.17855 2.96542 8.09132 2.75483 7.93605 2.59956C7.78078 2.44429 7.57019 2.35706 7.35061 2.35706H3.2109ZM16.8388 9.39457H12.6991C12.1458 9.39457 11.6151 9.17475 11.2238 8.78347C10.8325 8.3922 10.6127 7.86151 10.6127 7.30816V3.16845C10.6127 2.61509 10.8325 2.08441 11.2238 1.69313C11.6151 1.30185 12.1458 1.08203 12.6991 1.08203H16.8388C17.3922 1.08203 17.9229 1.30185 18.3141 1.69313C18.7054 2.08441 18.9252 2.61509 18.9252 3.16845V7.30816C18.9253 7.85441 18.7112 8.37892 18.3288 8.76903C17.9465 9.15914 17.4264 9.38373 16.8802 9.39457H16.8388ZM12.6991 2.35706C12.4795 2.35706 12.2689 2.44429 12.1137 2.59956C11.9584 2.75483 11.8712 2.96542 11.8712 3.185V7.32472C11.8712 7.5443 11.9584 7.75489 12.1137 7.91016C12.2689 8.06543 12.4795 8.15266 12.6991 8.15266H16.8388C17.0584 8.15266 17.269 8.06543 17.4243 7.91016C17.5795 7.75489 17.6668 7.5443 17.6668 7.32472V3.185C17.6668 2.96542 17.5795 2.75483 17.4243 2.59956C17.269 2.44429 17.0584 2.35706 16.8388 2.35706H12.6991ZM16.7891 18.9159H12.7736C12.2203 18.9159 11.6896 18.6961 11.2983 18.3048C10.907 17.9135 10.6872 17.3828 10.6872 16.8295V12.6898C10.6872 12.1364 10.907 11.6057 11.2983 11.2145C11.6896 10.8232 12.2203 10.6034 12.7736 10.6034H16.8719C17.4253 10.6034 17.956 10.8232 18.3473 11.2145C18.7385 11.6057 18.9584 12.1364 18.9584 12.6898V16.8295C18.9584 17.3828 18.7385 17.9135 18.3473 18.3048C17.956 18.6961 17.4253 18.9159 16.8719 18.9159H16.7891ZM12.6908 11.8784C12.4712 11.8784 12.2607 11.9656 12.1054 12.1209C11.9501 12.2762 11.8629 12.4868 11.8629 12.7063V16.8461C11.8629 17.0656 11.9501 17.2762 12.1054 17.4315C12.2607 17.5868 12.4712 17.674 12.6908 17.674H16.7891C17.0087 17.674 17.2193 17.5868 17.3746 17.4315C17.5299 17.2762 17.6171 17.0656 17.6171 16.8461V12.7063C17.6171 12.4868 17.5299 12.2762 17.3746 12.1209C17.2193 11.9656 17.0087 11.8784 16.7891 11.8784H12.6908ZM7.26781 18.9159H3.1281C2.57475 18.9159 2.04406 18.6961 1.65278 18.3048C1.26151 17.9135 1.04169 17.3828 1.04169 16.8295V12.6898C1.04169 12.1364 1.26151 11.6057 1.65278 11.2145C2.04406 10.8232 2.57475 10.6034 3.1281 10.6034H7.26781C7.82116 10.6034 8.35185 10.8232 8.74313 11.2145C9.13441 11.6057 9.35423 12.1364 9.35423 12.6898V16.8295C9.35465 17.3688 9.14623 17.8873 8.77269 18.2763C8.39914 18.6653 7.88948 18.8945 7.35061 18.9159H7.26781ZM3.1281 11.8784C2.90852 11.8784 2.69793 11.9656 2.54266 12.1209C2.38739 12.2762 2.30016 12.4868 2.30016 12.7063V16.8461C2.30016 17.0656 2.38739 17.2762 2.54266 17.4315C2.69793 17.5868 2.90852 17.674 3.1281 17.674H7.26781C7.4874 17.674 7.69799 17.5868 7.85326 17.4315C8.00852 17.2762 8.09575 17.0656 8.09575 16.8461V12.7063C8.09575 12.4868 8.00852 12.2762 7.85326 12.1209C7.69799 11.9656 7.4874 11.8784 7.26781 11.8784H3.1281Z" fill="white"/>
</g>
</svg>
