<svg width="12" height="12" viewBox="0 0 12 12" fill="none" xmlns="http://www.w3.org/2000/svg">
<path d="M3.75 3.5H8.25C9.215 3.5 10 2.715 10 1.75C10 0.785 9.215 0 8.25 0H3.75C2.785 0 2 0.785 2 1.75C2 2.715 2.785 3.5 3.75 3.5ZM3.75 1H8.25C8.665 1 9 1.335 9 1.75C9 2.165 8.665 2.5 8.25 2.5H3.75C3.335 2.5 3 2.165 3 1.75C3 1.335 3.335 1 3.75 1ZM2 8C2.275 8 2.5 7.775 2.5 7.5V7.25C2.5 6.835 2.835 6.5 3.25 6.5H5.5V7.5C5.5 7.775 5.725 8 6 8C6.275 8 6.5 7.775 6.5 7.5V6.5H8.75C9.165 6.5 9.5 6.835 9.5 7.25V7.5C9.5 7.775 9.725 8 10 8C10.275 8 10.5 7.775 10.5 7.5V7.25C10.5 6.285 9.715 5.5 8.75 5.5H6.5V5.025C6.5 4.75 6.275 4.525 6 4.525C5.725 4.525 5.5 4.75 5.5 5.025V5.5H3.25C2.285 5.5 1.5 6.285 1.5 7.25V7.5C1.5 7.775 1.725 8 2 8ZM6 9C5.175 9 4.5 9.675 4.5 10.5C4.5 11.325 5.175 12 6 12C6.825 12 7.5 11.325 7.5 10.5C7.5 9.675 6.825 9 6 9ZM6 11C5.725 11 5.5 10.775 5.5 10.5C5.5 10.225 5.725 10 6 10C6.275 10 6.5 10.225 6.5 10.5C6.5 10.775 6.275 11 6 11ZM2 9C1.175 9 0.5 9.675 0.5 10.5C0.5 11.325 1.175 12 2 12C2.825 12 3.5 11.325 3.5 10.5C3.5 9.675 2.825 9 2 9ZM2 11C1.725 11 1.5 10.775 1.5 10.5C1.5 10.225 1.725 10 2 10C2.275 10 2.5 10.225 2.5 10.5C2.5 10.775 2.275 11 2 11ZM10 9C9.175 9 8.5 9.675 8.5 10.5C8.5 11.325 9.175 12 10 12C10.825 12 11.5 11.325 11.5 10.5C11.5 9.675 10.825 9 10 9ZM10 11C9.725 11 9.5 10.775 9.5 10.5C9.5 10.225 9.725 10 10 10C10.275 10 10.5 10.225 10.5 10.5C10.5 10.775 10.275 11 10 11Z" fill="#7C8689"/>
</svg>
