<svg width="24" height="21" viewBox="0 0 24 21" fill="none" xmlns="http://www.w3.org/2000/svg">
<path d="M6.54419 0.663979C6.43428 0.553683 6.30147 0.498535 6.14576 0.498535C5.99004 0.498535 5.85723 0.553683 5.74732 0.663979L2.76232 3.63163L1.69826 2.59476C1.58834 2.48446 1.45553 2.42932 1.29982 2.42932C1.14411 2.42932 1.01129 2.48446 0.901381 2.59476L0.165444 3.33163C0.0551482 3.44155 3.68804e-07 3.57436 3.68804e-07 3.73007C3.68804e-07 3.88578 0.0551482 4.0186 0.165444 4.12851L2.39622 6.35038C2.51185 6.4603 2.64943 6.51525 2.80896 6.51525C2.96849 6.51525 3.10607 6.4603 3.22169 6.35038L3.95248 5.6182L7.33685 2.23429C7.44657 2.12448 7.50185 1.99195 7.50267 1.83672C7.50349 1.68149 7.44963 1.54838 7.34107 1.43742L6.54419 0.663979ZM6.54419 8.12601C6.43428 8.01571 6.30147 7.96057 6.14576 7.96057C5.99005 7.96057 5.85723 8.01571 5.74732 8.12601L2.76232 11.1129L1.69826 10.0769C1.58834 9.96665 1.45553 9.9115 1.29982 9.9115C1.14411 9.9115 1.01129 9.96665 0.901381 10.0769L0.165444 10.8124C0.055148 10.9223 0 11.0551 0 11.2109C0 11.3666 0.055148 11.4994 0.165444 11.6093L2.3906 13.8359C2.50615 13.9457 2.64365 14.0007 2.8031 14.0007C2.96255 14.0007 3.10005 13.9457 3.2156 13.8359L3.95154 13.1004L7.33591 9.71507C7.44524 9.60601 7.50031 9.47427 7.50113 9.31985C7.50195 9.16543 7.44829 9.03311 7.34013 8.92288L6.54419 8.12601ZM2.99998 16.2499C1.75826 16.2499 0.722319 17.2577 0.722319 18.4999C0.722319 19.7421 1.75919 20.7499 2.99998 20.7499C3.6213 20.7499 4.15163 20.5302 4.59097 20.0909C5.0303 19.6516 5.24998 19.1212 5.24998 18.4999C5.24998 17.8786 5.0303 17.3483 4.59097 16.9089C4.15163 16.4696 3.6213 16.2499 2.99998 16.2499ZM23.25 16.9999H9.74998C9.54287 16.9999 9.36609 17.0731 9.21964 17.2196C9.0732 17.366 8.99998 17.5428 8.99998 17.7499V19.2499C8.99998 19.457 9.0732 19.6338 9.21964 19.7802C9.36609 19.9267 9.54287 19.9999 9.74998 19.9999H23.25C23.4571 19.9999 23.6339 19.9267 23.7803 19.7802C23.9268 19.6338 24 19.457 24 19.2499V17.7499C24 17.5428 23.9268 17.366 23.7803 17.2196C23.6339 17.0731 23.4571 16.9999 23.25 16.9999ZM23.25 1.99992H9.74998C9.54287 1.99992 9.36609 2.07314 9.21964 2.21959C9.0732 2.36603 8.99998 2.54281 8.99998 2.74992V4.24992C8.99998 4.45702 9.0732 4.6338 9.21964 4.78025C9.36609 4.92669 9.54287 4.99992 9.74998 4.99992H23.25C23.4571 4.99992 23.6339 4.92669 23.7803 4.78025C23.9268 4.6338 24 4.45702 24 4.24992V2.74992C24 2.54281 23.9268 2.36603 23.7803 2.21959C23.6339 2.07314 23.4571 1.99992 23.25 1.99992ZM23.25 9.49992H9.74998C9.54287 9.49992 9.36609 9.57314 9.21964 9.71959C9.0732 9.86603 8.99998 10.0428 8.99998 10.2499V11.7499C8.99998 11.957 9.0732 12.1338 9.21964 12.2802C9.36609 12.4267 9.54287 12.4999 9.74998 12.4999H23.25C23.4571 12.4999 23.6339 12.4267 23.7803 12.2802C23.9268 12.1338 24 11.957 24 11.7499V10.2499C24 10.0428 23.9268 9.86603 23.7803 9.71959C23.6339 9.57314 23.4571 9.49992 23.25 9.49992Z" fill="white"/>
</svg>
