<svg width="24" height="17" viewBox="0 0 24 17" fill="none" xmlns="http://www.w3.org/2000/svg">
<path d="M23.4 11.4799H22.8V8.23692C22.8 7.85592 22.6088 7.48992 22.2713 7.21992L18.525 4.22292C18.1875 3.95292 17.73 3.79992 17.2538 3.79992H15.6V2.35992C15.6 1.56492 14.7938 0.919922 13.8 0.919922H1.8C0.80625 0.919922 0 1.56492 0 2.35992V11.9599C0 12.7549 0.80625 13.3999 1.8 13.3999H2.4C2.4 14.9899 4.0125 16.2799 6 16.2799C7.9875 16.2799 9.6 14.9899 9.6 13.3999H14.4C14.4 14.9899 16.0125 16.2799 18 16.2799C19.9875 16.2799 21.6 14.9899 21.6 13.3999H23.4C23.73 13.3999 24 13.1839 24 12.9199V11.9599C24 11.6959 23.73 11.4799 23.4 11.4799ZM6 14.8399C5.00625 14.8399 4.2 14.1949 4.2 13.3999C4.2 12.6049 5.00625 11.9599 6 11.9599C6.99375 11.9599 7.8 12.6049 7.8 13.3999C7.8 14.1949 6.99375 14.8399 6 14.8399ZM18 14.8399C17.0063 14.8399 16.2 14.1949 16.2 13.3999C16.2 12.6049 17.0063 11.9599 18 11.9599C18.9938 11.9599 19.8 12.6049 19.8 13.3999C19.8 14.1949 18.9938 14.8399 18 14.8399ZM21 8.59992H15.6V5.23992H17.2538L21 8.23692V8.59992Z" fill="white"/>
</svg>
