<svg width="18" height="22" viewBox="0 0 18 22" fill="none" xmlns="http://www.w3.org/2000/svg">
<path d="M16.5 9.37109V18.5C16.5 19.1213 16.2803 19.6516 15.841 20.091C15.4016 20.5303 14.8713 20.75 14.25 20.75H3.75C3.12868 20.75 2.59835 20.5303 2.15901 20.091C1.71967 19.6516 1.5 19.1213 1.5 18.5V3.5C1.5 2.87868 1.71967 2.34835 2.15901 1.90901C2.59835 1.46967 3.12868 1.25 3.75 1.25H8.37891C8.57775 1.25003 8.76902 1.28809 8.95273 1.36419C9.13644 1.44029 9.2986 1.54863 9.43922 1.68922L16.0608 8.31078C16.2014 8.4514 16.3097 8.61356 16.3858 8.79727C16.4619 8.98097 16.5 9.17225 16.5 9.37109Z" stroke="white" stroke-width="1.5" stroke-linejoin="round"/>
</svg>
