<svg width="20" height="21" viewBox="0 0 20 21" fill="none" xmlns="http://www.w3.org/2000/svg">
<g clip-path="url(#clip0_29_6043)">
<path d="M10 3.48063C8.23191 3.48063 6.53622 4.18301 5.28598 5.43325C4.03573 6.6835 3.33335 8.37919 3.33335 10.1473H5.83335C6.27538 10.1473 6.6993 10.3229 7.01187 10.6355C7.32443 10.948 7.50002 11.3719 7.50002 11.814V15.9806C7.50002 16.4227 7.32443 16.8466 7.01187 17.1591C6.6993 17.4717 6.27538 17.6473 5.83335 17.6473H3.33335C2.89133 17.6473 2.4674 17.4717 2.15484 17.1591C1.84228 16.8466 1.66669 16.4227 1.66669 15.9806V10.1473C1.66669 5.5448 5.39752 1.81396 10 1.81396C14.6025 1.81396 18.3334 5.5448 18.3334 10.1473V15.9806C18.3334 16.4227 18.1578 16.8466 17.8452 17.1591C17.5326 17.4717 17.1087 17.6473 16.6667 17.6473H14.1667C13.7247 17.6473 13.3007 17.4717 12.9882 17.1591C12.6756 16.8466 12.5 16.4227 12.5 15.9806V11.814C12.5 11.3719 12.6756 10.948 12.9882 10.6355C13.3007 10.3229 13.7247 10.1473 14.1667 10.1473H16.6667C16.6667 8.37919 15.9643 6.6835 14.7141 5.43325C13.4638 4.18301 11.7681 3.48063 10 3.48063ZM3.33335 11.814V15.9806H5.83335V11.814H3.33335ZM14.1667 11.814V15.9806H16.6667V11.814H14.1667Z" fill="#E6E9E7"/>
</g>
<defs>
<clipPath id="clip0_29_6043">
<rect width="20" height="20" fill="white" transform="translate(0 0.147461)"/>
</clipPath>
</defs>
</svg>
