<svg width="20" height="21" viewBox="0 0 20 21" fill="none" xmlns="http://www.w3.org/2000/svg">
<path d="M16 16V16.01M5 1V5M1 9H17M18.121 18.121C18.5406 17.7015 18.8265 17.1669 18.9423 16.585C19.0581 16.003 18.9988 15.3997 18.7717 14.8515C18.5447 14.3033 18.1602 13.8347 17.6668 13.505C17.1734 13.1753 16.5934 12.9994 16 12.9994C15.4066 12.9994 14.8266 13.1753 14.3332 13.505C13.8398 13.8347 13.4553 14.3033 13.2283 14.8515C13.0012 15.3997 12.9419 16.003 13.0577 16.585C13.1735 17.1669 13.4594 17.7015 13.879 18.121C14.297 18.5397 15.004 19.166 16 20C17.0513 19.11 17.7583 18.4837 18.121 18.121Z" stroke="white" stroke-width="2" stroke-linecap="round" stroke-linejoin="round"/>
</svg>
