<svg width="18" height="19" viewBox="0 0 18 19" fill="none" xmlns="http://www.w3.org/2000/svg">
<path d="M10.45 0.529535C10.0442 0.187557 9.53065 0 9 0C8.46935 0 7.95577 0.187557 7.55 0.529535L0.8 6.22453C0.549459 6.43569 0.348059 6.69902 0.209877 6.99611C0.0716959 7.2932 6.77287e-05 7.61688 0 7.94454V17.2495C0 18.2155 0.784 18.9995 1.75 18.9995H16.25C16.7141 18.9995 17.1592 18.8152 17.4874 18.487C17.8156 18.1588 18 17.7137 18 17.2495V7.94353C17.9999 7.61588 17.9283 7.2922 17.7901 6.99511C17.6519 6.69802 17.4505 6.43469 17.2 6.22354L10.45 0.529535ZM12.784 9.27654L8.28 13.7805C8.13937 13.921 7.94875 13.9999 7.75 13.9999C7.55125 13.9999 7.36063 13.921 7.22 13.7805L5.22 11.7805C5.08752 11.6384 5.0154 11.4503 5.01882 11.256C5.02225 11.0617 5.10097 10.8763 5.23838 10.7389C5.37579 10.6015 5.56118 10.5228 5.75548 10.5194C5.94978 10.5159 6.13783 10.5881 6.28 10.7205L7.75 12.1895L11.723 8.21654C11.7917 8.14285 11.8745 8.08375 11.9665 8.04275C12.0585 8.00176 12.1578 7.97972 12.2585 7.97794C12.3592 7.97617 12.4592 7.99469 12.5526 8.03241C12.646 8.07013 12.7308 8.12628 12.802 8.1975C12.8733 8.26872 12.9294 8.35355 12.9671 8.44694C13.0048 8.54033 13.0234 8.64035 13.0216 8.74106C13.0198 8.84176 12.9978 8.94107 12.9568 9.03307C12.9158 9.12507 12.8567 9.20787 12.783 9.27654" fill="white"/>
</svg>
