<svg width="18" height="18" viewBox="0 0 18 18" fill="none" xmlns="http://www.w3.org/2000/svg">
<path d="M17.0002 7.98506C16.7557 6.22528 15.9393 4.59472 14.6769 3.34455C13.4145 2.09439 11.776 1.29398 10.0139 1.06661C8.25183 0.839245 6.46387 1.19754 4.92545 2.0863C3.38702 2.97507 2.18349 4.34499 1.50024 5.98506M1.00024 1.98506V5.98506H5.00024M1.00024 9.98506C1.2448 11.7448 2.06118 13.3754 3.32361 14.6256C4.58604 15.8757 6.22449 16.6761 7.98657 16.9035C9.74866 17.1309 11.5366 16.7726 13.075 15.8838C14.6135 14.995 15.817 13.6251 16.5002 11.9851M17.0002 15.9851V11.9851H13.0002" stroke="white" stroke-width="2" stroke-linecap="round" stroke-linejoin="round"/>
</svg>
