<svg width="24" height="24" viewBox="0 0 24 24" fill="none" xmlns="http://www.w3.org/2000/svg">
<path d="M6.40313 6.5059C5.93234 6.63895 5.50123 6.88513 5.14738 7.22297C4.79353 7.5608 4.52767 7.98005 4.37297 8.44418L0 21.5626L0.688594 22.2512L7.725 15.2148C7.58484 14.9214 7.5 14.597 7.5 14.2501C7.5 13.0075 8.50734 12.0001 9.75 12.0001C10.9927 12.0001 12 13.0075 12 14.2501C12 15.4928 10.9927 16.5001 9.75 16.5001C9.40312 16.5001 9.07875 16.4153 8.78531 16.2751L1.74891 23.3115L2.4375 24.0001L15.5559 19.6271C16.0201 19.4724 16.4393 19.2066 16.7772 18.8527C17.115 18.4989 17.3612 18.0678 17.4942 17.597L19.5 10.5001L13.5 4.50012L6.40313 6.5059ZM23.3409 3.47684L20.5233 0.65918C19.6444 -0.219727 18.2189 -0.219727 17.34 0.65918L14.6892 3.30996L20.6902 9.3109L23.3409 6.66012C24.2198 5.78121 24.2198 4.35621 23.3409 3.47684Z" fill="white"/>
</svg>
