<svg width="20" height="18" viewBox="0 0 20 18" fill="none" xmlns="http://www.w3.org/2000/svg">
<path d="M10 13C9.20436 13 8.44129 12.6839 7.87868 12.1213C7.31608 11.5587 7.00001 10.7956 7.00001 10C7.00001 8.88 7.61001 7.9 8.50001 7.39L18.21 1.77L12.68 11.35C12.18 12.33 11.17 13 10 13ZM10 0C11.81 0 13.5 0.5 14.97 1.32L12.87 2.53C12 2.19 11 2 10 2C7.87827 2 5.84344 2.84285 4.34315 4.34315C2.84286 5.84344 2.00001 7.87827 2.00001 10C2.00001 12.21 2.89001 14.21 4.34001 15.65H4.35001C4.74001 16.04 4.74001 16.67 4.35001 17.06C3.96001 17.45 3.32 17.45 2.93001 17.07C2.00002 16.1426 1.26244 15.0406 0.759617 13.8273C0.256795 12.614 -0.00135141 11.3134 5.32016e-06 10C5.32016e-06 7.34784 1.05357 4.8043 2.92894 2.92893C4.8043 1.05357 7.34784 0 10 0ZM20 10C20 12.76 18.88 15.26 17.07 17.07C16.68 17.45 16.05 17.45 15.66 17.06C15.5673 16.9675 15.4938 16.8576 15.4436 16.7366C15.3934 16.6157 15.3676 16.486 15.3676 16.355C15.3676 16.224 15.3934 16.0943 15.4436 15.9734C15.4938 15.8524 15.5673 15.7425 15.66 15.65C16.4037 14.9093 16.9934 14.0287 17.395 13.059C17.7966 12.0893 18.0023 11.0496 18 10C18 9 17.81 8 17.46 7.1L18.67 5C19.5 6.5 20 8.18 20 10Z" fill="white"/>
</svg>
