<svg width="24" height="24" viewBox="0 0 24 24" fill="none" xmlns="http://www.w3.org/2000/svg">
<path d="M2.625 6C2.625 5.70163 2.74353 5.41548 2.9545 5.2045C3.16548 4.99353 3.45163 4.875 3.75 4.875H20.25C20.5484 4.875 20.8345 4.99353 21.0455 5.2045C21.2565 5.41548 21.375 5.70163 21.375 6C21.375 6.29837 21.2565 6.58452 21.0455 6.7955C20.8345 7.00647 20.5484 7.125 20.25 7.125H3.75C3.45163 7.125 3.16548 7.00647 2.9545 6.7955C2.74353 6.58452 2.625 6.29837 2.625 6ZM3.75 13.125H9.75C10.0484 13.125 10.3345 13.0065 10.5455 12.7955C10.7565 12.5845 10.875 12.2984 10.875 12C10.875 11.7016 10.7565 11.4155 10.5455 11.2045C10.3345 10.9935 10.0484 10.875 9.75 10.875H3.75C3.45163 10.875 3.16548 10.9935 2.9545 11.2045C2.74353 11.4155 2.625 11.7016 2.625 12C2.625 12.2984 2.74353 12.5845 2.9545 12.7955C3.16548 13.0065 3.45163 13.125 3.75 13.125ZM11.25 16.875H3.75C3.45163 16.875 3.16548 16.9935 2.9545 17.2045C2.74353 17.4155 2.625 17.7016 2.625 18C2.625 18.2984 2.74353 18.5845 2.9545 18.7955C3.16548 19.0065 3.45163 19.125 3.75 19.125H11.25C11.5484 19.125 11.8345 19.0065 12.0455 18.7955C12.2565 18.5845 12.375 18.2984 12.375 18C12.375 17.7016 12.2565 17.4155 12.0455 17.2045C11.8345 16.9935 11.5484 16.875 11.25 16.875ZM22.5459 18.7959C22.4414 18.9008 22.3172 18.984 22.1805 19.0408C22.0437 19.0976 21.8971 19.1268 21.7491 19.1268C21.601 19.1268 21.4544 19.0976 21.3176 19.0408C21.1809 18.984 21.0567 18.9008 20.9522 18.7959L19.2572 17.1009C18.3878 17.5858 17.3723 17.7398 16.3982 17.5347C15.4241 17.3296 14.5571 16.7791 13.957 15.9849C13.3569 15.1906 13.0643 14.2062 13.1331 13.2131C13.2019 12.22 13.6275 11.2853 14.3314 10.5814C15.0353 9.8775 15.97 9.45189 16.9631 9.38308C17.9562 9.31427 18.9406 9.6069 19.7349 10.207C20.5291 10.8071 21.0796 11.6741 21.2847 12.6482C21.4898 13.6223 21.3358 14.6378 20.8509 15.5072L22.5459 17.2013C22.651 17.3058 22.7343 17.43 22.7912 17.5669C22.848 17.7037 22.8773 17.8504 22.8773 17.9986C22.8773 18.1468 22.848 18.2935 22.7912 18.4303C22.7343 18.5672 22.651 18.6914 22.5459 18.7959ZM17.25 15.375C17.6208 15.375 17.9834 15.265 18.2917 15.059C18.6 14.853 18.8404 14.5601 18.9823 14.2175C19.1242 13.8749 19.1613 13.4979 19.089 13.1342C19.0166 12.7705 18.838 12.4364 18.5758 12.1742C18.3136 11.912 17.9795 11.7334 17.6158 11.661C17.2521 11.5887 16.8751 11.6258 16.5325 11.7677C16.1899 11.9096 15.897 12.15 15.691 12.4583C15.485 12.7666 15.375 13.1292 15.375 13.5C15.375 13.7462 15.4235 13.99 15.5177 14.2175C15.612 14.445 15.7501 14.6517 15.9242 14.8258C16.0983 14.9999 16.305 15.138 16.5325 15.2323C16.76 15.3265 17.0038 15.375 17.25 15.375Z" fill="white"/>
</svg>
