<svg width="20" height="21" viewBox="0 0 20 21" fill="none" xmlns="http://www.w3.org/2000/svg">
<g clip-path="url(#clip0_29_6040)">
<path d="M2.50002 2.64746H17.5C17.721 2.64746 17.933 2.73526 18.0893 2.89154C18.2456 3.04782 18.3334 3.25978 18.3334 3.48079V16.8141C18.3334 17.0351 18.2456 17.2471 18.0893 17.4034C17.933 17.5597 17.721 17.6475 17.5 17.6475H2.50002C2.27901 17.6475 2.06704 17.5597 1.91076 17.4034C1.75448 17.2471 1.66669 17.0351 1.66669 16.8141V3.48079C1.66669 3.25978 1.75448 3.04782 1.91076 2.89154C2.06704 2.73526 2.27901 2.64746 2.50002 2.64746ZM16.6667 6.17913L10.06 12.0958L3.33335 6.16079V15.9808H16.6667V6.17913ZM3.75919 4.31413L10.0509 9.86579L16.2517 4.31413H3.75919Z" fill="#E6E9E7"/>
</g>
<defs>
<clipPath id="clip0_29_6040">
<rect width="20" height="20" fill="white" transform="translate(0 0.147461)"/>
</clipPath>
</defs>
</svg>
