<svg width="20" height="20" viewBox="0 0 20 20" fill="none" xmlns="http://www.w3.org/2000/svg">
<path d="M14.5438 13.8132V8.19576C14.5415 7.48539 14.2583 6.80476 13.756 6.30245C13.2537 5.80014 12.5731 5.51695 11.8627 5.5147H4.20256V4.79124C4.20254 3.74599 4.61601 2.74317 5.35272 2.00168C6.08943 1.26019 7.08955 0.84024 8.13478 0.833496H15.1481C16.1977 0.833496 17.2044 1.25047 17.9466 1.99269C18.6888 2.73492 19.1058 3.74158 19.1058 4.79124V9.89802C19.1036 10.9389 18.6915 11.937 17.9587 12.6761C17.2259 13.4153 16.2314 13.8361 15.1906 13.8473L14.5438 13.8132ZM11.8627 4.23801C12.9124 4.23801 13.919 4.65499 14.6613 5.39721C15.4035 6.13943 15.8205 7.1461 15.8205 8.19576V12.4514C16.3886 12.3043 16.8927 11.9748 17.2556 11.5136C17.6184 11.0524 17.8199 10.4848 17.8291 9.89802V4.79124C17.8269 4.08087 17.5437 3.40024 17.0414 2.89793C16.5391 2.39562 15.8584 2.11243 15.1481 2.11019H8.13478C7.5185 2.10943 6.9209 2.32169 6.44318 2.711C5.96545 3.10032 5.63695 3.64278 5.5133 4.24652L11.8627 4.23801ZM8.35607 19.1668C8.078 19.1682 7.80383 19.1014 7.55753 18.9723C7.31123 18.8432 7.1003 18.6558 6.9432 18.4263L6.17718 17.3454C6.15064 17.3045 6.11394 17.2713 6.07066 17.2489C6.02739 17.2265 5.97903 17.2158 5.93035 17.2177H4.89197C4.36867 17.2234 3.84944 17.1251 3.36434 16.9288C2.87924 16.7324 2.4379 16.4418 2.06587 16.0737C1.69384 15.7056 1.39851 15.2674 1.19695 14.7844C0.995403 14.3015 0.89164 13.7833 0.89167 13.26V8.19576C0.89164 7.67242 0.995403 7.15427 1.19695 6.6713C1.39851 6.18833 1.69384 5.75013 2.06587 5.38205C2.4379 5.01398 2.87924 4.72335 3.36434 4.52697C3.84944 4.3306 4.36867 4.23238 4.89197 4.23801H11.9053C12.9549 4.23801 13.9616 4.65499 14.7038 5.39721C15.446 6.13943 15.863 7.1461 15.863 8.19576V13.26C15.863 14.3096 15.446 15.3163 14.7038 16.0585C13.9616 16.8007 12.9549 17.2177 11.9053 17.2177H10.7818C10.7332 17.2166 10.6852 17.2277 10.642 17.25C10.5989 17.2723 10.5621 17.3051 10.535 17.3454L9.76894 18.4263C9.61183 18.6558 9.40091 18.8432 9.15461 18.9723C8.90831 19.1014 8.63414 19.1682 8.35607 19.1668ZM4.89197 5.5147C4.53664 5.5102 4.18393 5.57617 3.85423 5.70878C3.52454 5.8414 3.22439 6.03803 2.97114 6.28733C2.71789 6.53662 2.51655 6.83364 2.37876 7.1612C2.24097 7.48877 2.16946 7.84039 2.16836 8.19576V13.26C2.16605 13.6171 2.23511 13.9711 2.37149 14.3011C2.50786 14.6312 2.7088 14.9307 2.96252 15.182C3.21623 15.4334 3.51761 15.6315 3.84894 15.7647C4.18027 15.898 4.53489 15.9637 4.89197 15.9581H5.93035C6.18435 15.9568 6.43485 16.0174 6.66023 16.1345C6.88561 16.2517 7.07912 16.4219 7.22407 16.6304L7.98157 17.6603C8.02378 17.7205 8.07982 17.7697 8.14499 17.8038C8.21015 17.8378 8.28254 17.8558 8.35607 17.8561C8.4296 17.8558 8.50199 17.8378 8.56715 17.8038C8.63231 17.7697 8.68835 17.7205 8.73057 17.6603L9.48807 16.5794C9.63858 16.3802 9.83452 16.2199 10.0596 16.1118C10.2846 16.0037 10.5322 15.951 10.7818 15.9581H11.8627C12.5738 15.9581 13.2557 15.6756 13.7585 15.1728C14.2613 14.67 14.5438 13.9881 14.5438 13.277V8.19576C14.5415 7.48539 14.2583 6.80476 13.756 6.30245C13.2537 5.80014 12.5731 5.51695 11.8627 5.5147H4.89197ZM5.38563 10.0002C5.22739 10.0002 5.07271 10.0471 4.94114 10.135C4.80957 10.2229 4.70702 10.3478 4.64647 10.494C4.58592 10.6402 4.57007 10.8011 4.60094 10.9563C4.63181 11.1115 4.70801 11.254 4.8199 11.3659C4.93179 11.4778 5.07435 11.554 5.22955 11.5849C5.38474 11.6158 5.54561 11.5999 5.6918 11.5394C5.83799 11.4788 5.96294 11.3763 6.05086 11.2447C6.13877 11.1131 6.18569 10.9584 6.18569 10.8002C6.18348 10.5887 6.09847 10.3865 5.94891 10.2369C5.79935 10.0874 5.59713 10.0024 5.38563 10.0002ZM8.36458 10.0002C8.2079 9.99714 8.05378 10.0402 7.92136 10.124C7.78894 10.2078 7.68405 10.3287 7.6197 10.4715C7.55535 10.6144 7.53438 10.7731 7.5594 10.9278C7.58441 11.0825 7.65431 11.2264 7.76041 11.3418C7.86651 11.4571 8.00414 11.5387 8.15623 11.5765C8.30831 11.6143 8.46815 11.6066 8.61589 11.5544C8.76364 11.5021 8.89279 11.4076 8.98732 11.2827C9.08185 11.1577 9.13759 11.0077 9.14762 10.8513C9.15334 10.7437 9.1375 10.636 9.10103 10.5347C9.06455 10.4333 9.00819 10.3402 8.93524 10.2609C8.86229 10.1816 8.77423 10.1177 8.67623 10.0729C8.57823 10.0281 8.47228 10.0034 8.36458 10.0002ZM11.335 10.0002C11.1768 10.0002 11.0221 10.0471 10.8905 10.135C10.759 10.2229 10.6564 10.3478 10.5959 10.494C10.5353 10.6402 10.5195 10.8011 10.5503 10.9563C10.5812 11.1115 10.6574 11.254 10.7693 11.3659C10.8812 11.4778 11.0237 11.554 11.1789 11.5849C11.3341 11.6158 11.495 11.5999 11.6412 11.5394C11.7874 11.4788 11.9123 11.3763 12.0002 11.2447C12.0882 11.1131 12.1351 10.9584 12.1351 10.8002C12.1329 10.5887 12.0479 10.3865 11.8983 10.2369C11.7487 10.0874 11.5465 10.0024 11.335 10.0002Z" fill="#78829D"/>
</svg>
