<svg width="20" height="20" viewBox="0 0 20 20" fill="none" xmlns="http://www.w3.org/2000/svg">
<g opacity="0.7">
<path d="M18.9583 9.99947C18.9619 8.51399 18.596 7.05093 17.8936 5.742C17.1912 4.43306 16.1744 3.31934 14.9345 2.50109C13.6947 1.68284 12.2709 1.18574 10.7912 1.05454C9.31154 0.923343 7.82245 1.16216 6.45801 1.74951C5.09357 2.33685 3.8966 3.25428 2.97485 4.4192C2.05311 5.58413 1.43551 6.95999 1.17767 8.42293C0.919826 9.88587 1.02983 11.39 1.49777 12.7998C1.96571 14.2097 2.7769 15.481 3.85833 16.4995L4.18333 16.7828H4.23333C4.35 16.8911 4.48333 16.9828 4.60833 17.0828C4.73333 17.1828 4.79166 17.2245 4.88333 17.2828C5.01427 17.3794 5.1506 17.4684 5.29166 17.5495L5.575 17.7245C5.71666 17.8078 5.86666 17.8828 6.01666 17.9578L6.30833 18.0995L6.76666 18.2911L7.075 18.4078L7.54166 18.5578L7.9 18.6495L8.33333 18.7495L8.8 18.8161L9.15833 18.8661C9.44166 18.8661 9.725 18.9078 9.99166 18.9078C10.2583 18.9078 10.5583 18.9078 10.825 18.8661L11.1833 18.8161L11.65 18.7495L12.0833 18.6495L12.45 18.5495L12.9083 18.4078L13.25 18.3328L13.7 18.1411L14 17.9995L14.4333 17.7661L14.7167 17.5911L15.125 17.3328L15.4 17.1245C15.525 17.0245 15.6583 16.9328 15.775 16.8245H15.825L16.15 16.5411C17.0427 15.7024 17.7528 14.6886 18.236 13.563C18.7192 12.4375 18.9651 11.2244 18.9583 9.99947ZM2.29166 9.99947C2.29166 7.9551 3.10379 5.99445 4.54938 4.54886C5.99497 3.10327 7.95562 2.29114 10 2.29114C12.0444 2.29114 14.005 3.10327 15.4506 4.54886C16.8962 5.99445 17.7083 7.9551 17.7083 9.99947C17.7107 11.9515 16.9652 13.8302 15.625 15.2495C15.0872 14.2229 14.2788 13.363 13.2873 12.7631C12.2957 12.1631 11.1589 11.846 10 11.846C8.84108 11.846 7.70427 12.1631 6.71273 12.7631C5.72119 13.363 4.91275 14.2229 4.375 15.2495C3.03483 13.8302 2.28929 11.9515 2.29166 9.99947ZM14.525 16.2328L14.2 16.4578L13.9667 16.5911C13.5574 16.8409 13.1248 17.0502 12.675 17.2161L12.4083 17.3161L12.05 17.4245L11.725 17.5078L11.3917 17.5745L10.9833 17.6411H10.7083C10.475 17.6411 10.2417 17.6411 10 17.6411C9.75833 17.6411 9.525 17.6411 9.29166 17.6411H9.01666L8.60833 17.5745L8.275 17.4995L7.95 17.4161L7.59166 17.3078L7.33333 17.2161C6.87942 17.044 6.4416 16.832 6.025 16.5828L5.83333 16.4578L5.50833 16.2328C5.46477 16.1921 5.41732 16.1559 5.36666 16.1245C5.76835 15.2223 6.42292 14.4559 7.25116 13.9181C8.07939 13.3802 9.04578 13.094 10.0333 13.094C11.0209 13.094 11.9873 13.3802 12.8155 13.9181C13.6437 14.4559 14.2983 15.2223 14.7 16.1245C14.6377 16.1538 14.579 16.1902 14.525 16.2328ZM10 11.2328C10.7019 11.2344 11.3884 11.0275 11.9725 10.6382C12.5565 10.2489 13.0117 9.6949 13.2803 9.04643C13.5489 8.39796 13.6188 7.68431 13.481 6.99607C13.3433 6.30783 13.0041 5.67604 12.5067 5.1809C12.0092 4.68576 11.3758 4.34961 10.6869 4.21511C9.99801 4.08062 9.2847 4.15384 8.63751 4.4255C7.99032 4.69715 7.43844 5.15498 7.05193 5.74086C6.66542 6.32675 6.46171 7.01427 6.46666 7.71614C6.46666 8.65401 6.83865 9.55358 7.50104 10.2175C8.16343 10.8815 9.06213 11.2556 10 11.2578V11.2328ZM10 5.39947C10.4525 5.39785 10.8954 5.53025 11.2728 5.77997C11.6502 6.02969 11.9452 6.38556 12.1206 6.8027C12.2961 7.21984 12.3441 7.67959 12.2586 8.12397C12.1731 8.56836 11.958 8.97749 11.6403 9.29979C11.3227 9.62209 10.9167 9.84313 10.4736 9.93503C10.0305 10.0269 9.57011 9.9856 9.15047 9.81623C8.73083 9.64685 8.37073 9.35703 8.11557 8.98329C7.8604 8.60956 7.7216 8.16865 7.71666 7.71614C7.71666 7.11056 7.95723 6.52979 8.38544 6.10158C8.81364 5.67337 9.39442 5.43281 10 5.43281V5.39947Z" fill="#E2E4ED"/>
</g>
</svg>
