<svg width="18" height="18" viewBox="0 0 18 18" fill="none" xmlns="http://www.w3.org/2000/svg">
<path d="M0.666687 9.00042C0.666687 8.27958 0.758354 7.58125 0.93002 6.91375C1.39041 6.93795 1.84852 6.83438 2.25372 6.61447C2.65892 6.39457 2.99542 6.06691 3.22603 5.6677C3.45663 5.2685 3.57236 4.8133 3.56042 4.35243C3.54847 3.89157 3.40933 3.44297 3.15835 3.05625C4.16581 2.06506 5.40902 1.34666 6.77085 0.96875C6.98001 1.37998 7.29888 1.72531 7.69217 1.96651C8.08546 2.20771 8.53783 2.33538 8.99919 2.33538C9.46055 2.33538 9.91291 2.20771 10.3062 1.96651C10.6995 1.72531 11.0184 1.37998 11.2275 0.96875C12.5894 1.34666 13.8326 2.06506 14.84 3.05625C14.5888 3.44304 14.4494 3.89181 14.4374 4.35289C14.4253 4.81397 14.5411 5.26939 14.7718 5.66876C15.0026 6.06813 15.3393 6.39589 15.7448 6.61576C16.1502 6.83564 16.6086 6.93906 17.0692 6.91458C17.2409 7.58125 17.3325 8.27958 17.3325 9.00042C17.3325 9.72125 17.2409 10.4196 17.0692 11.0871C16.6087 11.0627 16.1505 11.1662 15.7452 11.386C15.3399 11.6058 15.0032 11.9335 14.7725 12.3327C14.5418 12.732 14.426 13.1872 14.4379 13.6482C14.4498 14.1091 14.589 14.5578 14.84 14.9446C13.8326 15.9358 12.5894 16.6542 11.2275 17.0321C11.0184 16.6209 10.6995 16.2755 10.3062 16.0343C9.91291 15.7931 9.46055 15.6655 8.99919 15.6655C8.53783 15.6655 8.08546 15.7931 7.69217 16.0343C7.29888 16.2755 6.98001 16.6209 6.77085 17.0321C5.40902 16.6542 4.16581 15.9358 3.15835 14.9446C3.40961 14.5578 3.54896 14.109 3.56099 13.6479C3.57303 13.1869 3.45727 12.7314 3.22653 12.3321C2.99579 11.9327 2.65907 11.6049 2.25361 11.3851C1.84815 11.1652 1.38977 11.0618 0.929187 11.0863C0.758354 10.4204 0.666687 9.72208 0.666687 9.00042ZM4.67002 11.5004C5.19502 12.4096 5.34502 13.4554 5.14002 14.4371C5.48002 14.6788 5.84169 14.8879 6.22085 15.0621C6.98474 14.3778 7.97445 13.9997 9.00002 14.0004C10.05 14.0004 11.0317 14.3929 11.7792 15.0621C12.1584 14.8879 12.52 14.6788 12.86 14.4371C12.6496 13.4337 12.8169 12.388 13.33 11.5004C13.8422 10.6124 14.6642 9.94471 15.6384 9.62542C15.6769 9.20964 15.6769 8.79119 15.6384 8.37542C14.6639 8.0563 13.8416 7.3886 13.3292 6.50042C12.8161 5.61286 12.6487 4.56711 12.8592 3.56375C12.5193 3.32202 12.1574 3.11277 11.7784 2.93875C11.0147 3.62286 10.0253 4.00092 9.00002 4.00042C7.97445 4.00113 6.98474 3.62305 6.22085 2.93875C5.8418 3.11277 5.47993 3.32202 5.14002 3.56375C5.35049 4.56711 5.18312 5.61286 4.67002 6.50042C4.15783 7.38844 3.33584 8.05612 2.36169 8.37542C2.32315 8.79119 2.32315 9.20964 2.36169 9.62542C3.33615 9.94453 4.15846 10.6122 4.67085 11.5004H4.67002ZM9.00002 11.5004C8.33698 11.5004 7.70109 11.237 7.23225 10.7682C6.76341 10.2993 6.50002 9.66346 6.50002 9.00042C6.50002 8.33738 6.76341 7.70149 7.23225 7.23265C7.70109 6.76381 8.33698 6.50042 9.00002 6.50042C9.66306 6.50042 10.2989 6.76381 10.7678 7.23265C11.2366 7.70149 11.5 8.33738 11.5 9.00042C11.5 9.66346 11.2366 10.2993 10.7678 10.7682C10.2989 11.237 9.66306 11.5004 9.00002 11.5004ZM9.00002 9.83375C9.22103 9.83375 9.433 9.74595 9.58928 9.58967C9.74556 9.43339 9.83335 9.22143 9.83335 9.00042C9.83335 8.7794 9.74556 8.56744 9.58928 8.41116C9.433 8.25488 9.22103 8.16708 9.00002 8.16708C8.77901 8.16708 8.56705 8.25488 8.41077 8.41116C8.25449 8.56744 8.16669 8.7794 8.16669 9.00042C8.16669 9.22143 8.25449 9.43339 8.41077 9.58967C8.56705 9.74595 8.77901 9.83375 9.00002 9.83375Z" fill="#E2E4ED"/>
</svg>
