<svg width="18" height="18" viewBox="0 0 18 18" fill="none" xmlns="http://www.w3.org/2000/svg">
<path d="M16.5 8.7063V16.5013C16.5 16.7223 16.4122 16.9343 16.2559 17.0906C16.0997 17.2468 15.8877 17.3346 15.6667 17.3346H2.33336C2.11234 17.3346 1.90038 17.2468 1.7441 17.0906C1.58782 16.9343 1.50002 16.7223 1.50002 16.5013V8.7063C0.961954 8.09794 0.665484 7.31348 0.666691 6.5013V1.5013C0.666691 1.28029 0.754488 1.06833 0.910768 0.912046C1.06705 0.755766 1.27901 0.667969 1.50002 0.667969H16.5C16.721 0.667969 16.933 0.755766 17.0893 0.912046C17.2456 1.06833 17.3334 1.28029 17.3334 1.5013V6.5013C17.3334 7.3463 17.0184 8.11797 16.5 8.7063ZM14.8334 9.72964C14.2374 9.88274 13.6107 9.8682 13.0225 9.68762C12.4343 9.50703 11.9074 9.16743 11.5 8.7063C11.1875 9.06137 10.8029 9.34569 10.3718 9.54026C9.94068 9.73484 9.47301 9.8352 9.00002 9.83464C8.52704 9.8352 8.05937 9.73484 7.62826 9.54026C7.19714 9.34569 6.8125 9.06137 6.50002 8.7063C6.09362 9.16875 5.5668 9.50928 4.97826 9.68997C4.38972 9.87065 3.76257 9.88438 3.16669 9.72964V15.668H14.8334V9.72964ZM10.6667 6.5013C10.6667 6.28029 10.7545 6.06833 10.9108 5.91205C11.067 5.75577 11.279 5.66797 11.5 5.66797C11.721 5.66797 11.933 5.75577 12.0893 5.91205C12.2456 6.06833 12.3334 6.28029 12.3334 6.5013C12.3334 6.94333 12.509 7.36725 12.8215 7.67981C13.1341 7.99237 13.558 8.16797 14 8.16797C14.4421 8.16797 14.866 7.99237 15.1785 7.67981C15.4911 7.36725 15.6667 6.94333 15.6667 6.5013V2.33464H2.33336V6.5013C2.33336 6.94333 2.50895 7.36725 2.82151 7.67981C3.13407 7.99237 3.558 8.16797 4.00002 8.16797C4.44205 8.16797 4.86597 7.99237 5.17853 7.67981C5.4911 7.36725 5.66669 6.94333 5.66669 6.5013C5.66669 6.28029 5.75449 6.06833 5.91077 5.91205C6.06705 5.75577 6.27901 5.66797 6.50002 5.66797C6.72104 5.66797 6.933 5.75577 7.08928 5.91205C7.24556 6.06833 7.33336 6.28029 7.33336 6.5013C7.33336 6.94333 7.50895 7.36725 7.82151 7.67981C8.13407 7.99237 8.558 8.16797 9.00002 8.16797C9.44205 8.16797 9.86597 7.99237 10.1785 7.67981C10.4911 7.36725 10.6667 6.94333 10.6667 6.5013Z" fill="#E2E4ED"/>
</svg>
