<svg width="24" height="24" viewBox="0 0 24 24" fill="none" xmlns="http://www.w3.org/2000/svg">
<path d="M21.9871 18.7313C21.941 19.0371 21.8246 19.328 21.6471 19.5813C21.4704 19.8301 21.2364 20.0327 20.9648 20.1719C20.6933 20.3112 20.3922 20.383 20.0871 20.3813H18.4361C18.3186 20.3809 18.203 20.3526 18.0986 20.2987C17.9943 20.2448 17.9043 20.1668 17.8361 20.0713C17.767 19.9758 17.7212 19.8655 17.7021 19.7492C17.683 19.633 17.6912 19.5138 17.7261 19.4013C18.0961 18.2213 18.0161 16.8913 14.6651 14.7613C14.5285 14.6718 14.4239 14.5413 14.3664 14.3885C14.3089 14.2357 14.3014 14.0686 14.3451 13.9113C14.3919 13.7563 14.487 13.6204 14.6165 13.5232C14.746 13.4261 14.9032 13.3729 15.0651 13.3713C16.4953 13.3907 17.8912 13.8129 19.0925 14.5894C20.2938 15.3658 21.2519 16.4652 21.8571 17.7613C21.9801 18.0688 22.0247 18.4022 21.9871 18.7313ZM19.4861 7.70126C19.4834 8.87288 19.0168 9.99574 18.1882 10.8241C17.3596 11.6525 16.2367 12.1189 15.0651 12.1213C14.9338 12.1189 14.8054 12.0825 14.6924 12.0158C14.5793 11.949 14.4855 11.8541 14.4201 11.7403C14.3546 11.6265 14.3197 11.4977 14.3189 11.3665C14.318 11.2352 14.3511 11.1059 14.4151 10.9913C15.027 10.0122 15.3515 8.88085 15.3515 7.72626C15.3515 6.57168 15.027 5.44033 14.4151 4.46126C14.3366 4.34918 14.2903 4.21777 14.2812 4.08127C14.2721 3.94476 14.3005 3.80837 14.3633 3.68684C14.4261 3.56531 14.521 3.46328 14.6376 3.39179C14.7543 3.3203 14.8883 3.28208 15.0251 3.28126C15.6105 3.27977 16.1901 3.39786 16.7283 3.62827C17.2666 3.85869 17.752 4.19659 18.1551 4.62126C18.9777 5.45188 19.4412 6.57226 19.4461 7.74126L19.4861 7.70126Z" fill="white"/>
<path d="M16.6749 18.6996C16.7154 19.1892 16.619 19.6803 16.3965 20.1182C16.174 20.5562 15.8342 20.9236 15.4149 21.1796C14.9969 21.4366 14.5149 21.5716 14.0249 21.5696H4.65194C4.16129 21.5718 3.67982 21.4367 3.26194 21.1796C2.84174 20.9252 2.50155 20.5577 2.28017 20.1192C2.05879 19.6807 1.96515 19.1888 2.00994 18.6996C2.04621 18.2115 2.21953 17.7436 2.50994 17.3496C3.30725 16.2888 4.33415 15.422 5.51381 14.8142C6.69346 14.2064 7.99531 13.8732 9.32194 13.8396C10.6531 13.866 11.9609 14.1949 13.1462 14.8012C14.3316 15.4076 15.3635 16.2756 16.1639 17.3396C16.455 17.7379 16.6324 18.2082 16.6749 18.6996ZM14.2449 7.31961C14.2423 8.61963 13.7253 9.86577 12.8067 10.7858C11.8882 11.7058 10.6429 12.2249 9.34294 12.2296C8.61911 12.2278 7.90466 12.0658 7.25088 11.7552C6.5971 11.4445 6.0202 10.993 5.56161 10.433C5.10302 9.87296 4.77412 9.21835 4.59851 8.51615C4.4229 7.81395 4.40495 7.08158 4.54594 6.37161C4.68752 5.66148 4.98473 4.99154 5.4162 4.41001C5.84766 3.82848 6.40266 3.3498 7.04125 3.00842C7.67984 2.66703 8.38615 2.47142 9.10939 2.43567C9.83262 2.39991 10.5548 2.52489 11.2239 2.80161C12.1188 3.1711 12.8842 3.79742 13.4235 4.60151C13.9628 5.40561 14.2517 6.35143 14.2539 7.31961H14.2449Z" fill="white"/>
</svg>
