<svg width="19" height="19" viewBox="0 0 19 19" fill="none" xmlns="http://www.w3.org/2000/svg">
<path d="M0.666687 18.332C0.666687 16.5639 1.36907 14.8682 2.61931 13.618C3.86955 12.3677 5.56524 11.6654 7.33335 11.6654C9.10146 11.6654 10.7972 12.3677 12.0474 13.618C13.2976 14.8682 14 16.5639 14 18.332H12.3334C12.3334 17.0059 11.8066 15.7342 10.8689 14.7965C9.93121 13.8588 8.65944 13.332 7.33335 13.332C6.00727 13.332 4.7355 13.8588 3.79782 14.7965C2.86014 15.7342 2.33335 17.0059 2.33335 18.332H0.666687ZM7.33335 10.832C4.57085 10.832 2.33335 8.59453 2.33335 5.83203C2.33335 3.06953 4.57085 0.832031 7.33335 0.832031C10.0959 0.832031 12.3334 3.06953 12.3334 5.83203C12.3334 8.59453 10.0959 10.832 7.33335 10.832ZM7.33335 9.16536C9.17502 9.16536 10.6667 7.6737 10.6667 5.83203C10.6667 3.99036 9.17502 2.4987 7.33335 2.4987C5.49169 2.4987 4.00002 3.99036 4.00002 5.83203C4.00002 7.6737 5.49169 9.16536 7.33335 9.16536ZM14.2367 12.2512C15.4078 12.7786 16.4017 13.6331 17.0988 14.7118C17.796 15.7905 18.1668 17.0476 18.1667 18.332H16.5C16.5002 17.3687 16.2221 16.4258 15.6993 15.6167C15.1764 14.8076 14.4309 14.1667 13.5525 13.7712L14.2359 12.2512H14.2367ZM13.6634 2.84286C14.503 3.18895 15.2208 3.77665 15.7259 4.53139C16.2309 5.28613 16.5004 6.1739 16.5 7.08203C16.5004 8.22564 16.0731 9.32805 15.3021 10.1727C14.5312 11.0174 13.4722 11.5433 12.3334 11.647V9.96953C12.9508 9.8811 13.5236 9.59705 13.9678 9.15908C14.4119 8.72111 14.7039 8.1523 14.801 7.53614C14.898 6.91999 14.795 6.28895 14.507 5.73566C14.219 5.18237 13.7612 4.73599 13.2009 4.46203L13.6634 2.84286Z" fill="#E2E4ED"/>
</svg>
