<svg width="16" height="16" viewBox="0 0 16 16" fill="none" xmlns="http://www.w3.org/2000/svg">
<g clip-path="url(#clip0_29_6145)">
<path d="M9.79346 2.5L11.1265 3.83301H14.0005C14.0444 3.83309 14.0865 3.85086 14.1177 3.88184C14.1489 3.91309 14.1665 3.9558 14.1665 4V13.333C14.1665 13.3772 14.1489 13.4199 14.1177 13.4512C14.0865 13.4822 14.0445 13.4999 14.0005 13.5H2.00049C1.95628 13.5 1.91358 13.4824 1.88232 13.4512C1.85107 13.4199 1.8335 13.3772 1.8335 13.333V4C1.8335 3.9558 1.85107 3.91309 1.88232 3.88184C1.91356 3.85068 1.95636 3.83301 2.00049 3.83301H4.87354L5.02002 3.68652L6.20752 2.5H9.79346ZM6.19873 2.97949L5.01221 4.16699H2.1665V13.167H13.8335V4.16699H10.9888L9.65479 2.83301H6.34521L6.19873 2.97949ZM8.00049 5.16699C8.84022 5.16708 9.64596 5.49996 10.2397 6.09375C10.8335 6.68754 11.1664 7.49327 11.1665 8.33301C11.1665 9.17271 10.8334 9.97843 10.2397 10.5723C9.64596 11.1661 8.84022 11.4999 8.00049 11.5C7.16064 11.5 6.3551 11.1661 5.76123 10.5723C5.16737 9.9784 4.8335 9.17286 4.8335 8.33301C4.83358 7.49327 5.16744 6.68754 5.76123 6.09375C6.35506 5.50009 7.16079 5.16699 8.00049 5.16699ZM8.00049 5.5C7.24904 5.5 6.52793 5.79873 5.99658 6.33008C5.46541 6.86134 5.16659 7.58176 5.1665 8.33301C5.1665 9.08445 5.46523 9.80556 5.99658 10.3369C6.52794 10.8683 7.24904 11.167 8.00049 11.167C8.75174 11.1669 9.47216 10.8681 10.0034 10.3369C10.5348 9.80556 10.8335 9.08445 10.8335 8.33301C10.8334 7.58168 10.5347 6.86135 10.0034 6.33008C9.47214 5.7988 8.75182 5.50009 8.00049 5.5Z" stroke="#FCFCFC"/>
</g>
<defs>
<clipPath id="clip0_29_6145">
<rect width="16" height="16" fill="white"/>
</clipPath>
</defs>
</svg>
