<svg width="61" height="62" viewBox="0 0 61 62" fill="none" xmlns="http://www.w3.org/2000/svg">
<path d="M60.2547 32.3227C60.2547 48.2612 47.3451 61.1708 31.4067 61.1708C15.4682 61.1708 2.55859 48.2612 2.55859 32.3227C2.55859 16.3842 15.4682 3.47461 31.4067 3.47461C47.3451 3.47461 60.2547 16.3842 60.2547 32.3227Z" fill="black"/>
<path d="M31.4059 61.8431C15.1309 61.8431 1.88477 48.5969 1.88477 32.3219C1.88477 16.0469 15.1309 2.80078 31.4059 2.80078C47.6809 2.80078 60.9271 16.0469 60.9271 32.3219C60.9271 48.5969 47.6809 61.8431 31.4059 61.8431ZM31.4059 4.14694C15.8713 4.14694 3.23092 16.7873 3.23092 32.3219C3.23092 47.8566 15.8713 60.4969 31.4059 60.4969C46.9405 60.4969 59.5809 47.8566 59.5809 32.3219C59.5809 16.7873 46.9405 4.14694 31.4059 4.14694Z" fill="black"/>
<path d="M58.37 29.5219C58.37 45.4604 45.4604 58.37 29.5219 58.37C13.5834 58.37 0.673828 45.4604 0.673828 29.5219C0.673828 13.5834 13.5834 0.673828 29.5219 0.673828C45.4604 0.673828 58.37 13.5834 58.37 29.5219Z" fill="white"/>
<path d="M29.5212 59.0423C13.2462 59.0423 0 45.7962 0 29.5212C0 13.2462 13.2462 0 29.5212 0C45.7962 0 59.0423 13.2462 59.0423 29.5212C59.0423 45.7962 45.7962 59.0423 29.5212 59.0423ZM29.5212 1.34615C13.9865 1.34615 1.34615 13.9865 1.34615 29.5212C1.34615 45.0558 13.9865 57.6962 29.5212 57.6962C45.0558 57.6962 57.6962 45.0558 57.6962 29.5212C57.6962 13.9865 45.0558 1.34615 29.5212 1.34615Z" fill="black"/>
<path d="M29.5221 52.999C16.5855 52.999 6.05859 42.4721 6.05859 29.5221C6.05859 16.5855 16.5855 6.05859 29.5221 6.05859C42.4586 6.05859 52.9855 16.5855 52.9855 29.5221C52.9855 42.4586 42.4586 52.999 29.5221 52.999Z" fill="#C3F649"/>
<path d="M28.4176 49.1742C25.5907 49.2415 22.6964 48.6357 20.0849 47.3838C18.7791 46.7646 17.4599 46.0915 16.3964 45.0684C15.3464 44.0588 14.4445 42.8877 13.8926 41.528L14.0003 41.4473C15.158 42.3357 16.1945 43.2107 17.2983 44.0184C18.4022 44.8126 19.4118 45.7146 20.5964 46.4146C22.9522 47.8011 25.631 48.7165 28.4176 49.0396V49.1742Z" fill="white"/>
<path d="M29.5209 31.5532C28.8613 31.5532 28.2286 31.2302 27.8382 30.6513C27.219 29.7225 27.4748 28.4705 28.4036 27.8513L40.5459 19.8148C41.4748 19.1955 42.7267 19.4513 43.3459 20.3802C43.9651 21.309 43.7094 22.5609 42.7805 23.1802L30.6248 31.2167C30.3017 31.4321 29.9113 31.5532 29.5209 31.5532Z" fill="black"/>
<path d="M29.5212 31.5544C28.4039 31.5544 27.502 30.6525 27.502 29.5352V10.4333C27.502 9.31599 28.4039 8.41406 29.5212 8.41406C30.6385 8.41406 31.5404 9.31599 31.5404 10.4333V29.5218C31.5404 30.6391 30.6385 31.5544 29.5212 31.5544Z" fill="black"/>
<path d="M34.637 29.5216C34.637 32.3486 32.3486 34.637 29.5216 34.637C26.6947 34.637 24.4062 32.3486 24.4062 29.5216C24.4062 26.6947 26.6947 24.4062 29.5216 24.4062C32.3486 24.4062 34.637 26.7082 34.637 29.5216Z" fill="black"/>
</svg>
