<svg width="18" height="24" viewBox="0 0 18 24" fill="none" xmlns="http://www.w3.org/2000/svg">
<g clip-path="url(#clip0_524_54119)">
<path d="M3 0C1.34531 0 0 1.34531 0 3V21C0 22.6547 1.34531 24 3 24H15C16.6547 24 18 22.6547 18 21V7.5H12C11.1703 7.5 10.5 6.82969 10.5 6V0H3ZM12 0V6H18L12 0ZM7.17188 13.5469L5.71875 15L7.17188 16.4531C7.6125 16.8937 7.6125 17.6062 7.17188 18.0422C6.73125 18.4781 6.01875 18.4828 5.58281 18.0422L3.32812 15.7969C2.8875 15.3562 2.8875 14.6438 3.32812 14.2078L5.57812 11.9578C6.01875 11.5172 6.73125 11.5172 7.16719 11.9578C7.60312 12.3984 7.60781 13.1109 7.16719 13.5469H7.17188ZM12.4219 11.9531L14.6719 14.2031C15.1125 14.6438 15.1125 15.3562 14.6719 15.7922L12.4219 18.0422C11.9812 18.4828 11.2688 18.4828 10.8328 18.0422C10.3969 17.6016 10.3922 16.8891 10.8328 16.4531L12.2859 15L10.8328 13.5469C10.3922 13.1062 10.3922 12.3938 10.8328 11.9578C11.2734 11.5219 11.9859 11.5172 12.4219 11.9578V11.9531Z" fill="#7A9705"/>
</g>
<defs>
<clipPath id="clip0_524_54119">
<path d="M0 0H18V24H0V0Z" fill="white"/>
</clipPath>
</defs>
</svg>
