<svg width="47" height="54" viewBox="0 0 47 54" fill="none" xmlns="http://www.w3.org/2000/svg">
<path opacity="0.12" d="M39.2886 43.7182C39.9879 42.507 37.0873 39.5232 32.8099 37.0537C28.5326 34.5842 24.4982 33.5641 23.799 34.7753C23.0997 35.9864 26.0003 38.9702 30.2776 41.4397C34.555 43.9093 38.5893 44.9294 39.2886 43.7182Z" fill="#010101"/>
<path d="M39.2405 38.271L41.8347 36.8672C42.9568 36.1867 43.6395 34.847 43.6395 32.6475C43.6395 26.3499 39.0229 22.4075 33.6128 18.591C30.3125 16.2806 27.7909 14.3051 27.7909 11.6726C27.789 11.4623 27.8069 11.2523 27.8443 11.0454C28.6976 11.2011 29.7771 11.6448 31.0443 12.3808C33.2117 13.6374 35.5072 16.0075 36.6293 18.1643L36.8576 18.6038L40.096 18.7872L42.5941 17.4774L42.2976 16.7456C40.9792 13.5456 39.0976 10.9856 35.8507 8.60271L35.6779 8.47685L35.6267 5.23632L31.6736 2.88965L29.2779 4.20805V5.38992C27.9659 5.07205 26.4363 4.94405 25.3013 5.58405C25.3013 5.58405 21.6939 7.87098 21.6939 9.83578C21.6939 15.8752 25.6832 20.1846 30.8288 23.824C35.0187 26.8107 36.9685 29.2534 36.9685 31.504C36.9727 31.8297 36.9311 32.1543 36.8448 32.4683C35.8891 32.3318 34.7115 31.8795 33.3291 31.0987C30.9824 29.7718 27.8656 26.8811 26.5323 23.6747L26.3189 23.1584L22.6133 22.7894L20.6784 24.048L20.9237 24.7222C22.5036 29.0126 25.3557 32.7184 29.0987 35.344L29.28 35.4656L29.4336 39.1264L33.2437 41.3643L35.68 40.0544V38.4928C37.024 38.8192 38.272 38.7851 39.2405 38.271ZM41.4677 31.871L41.4229 31.696L41.5189 31.7728L41.4677 31.871Z" fill="#E6F5F8"/>
<path d="M46.656 19.1157L45.6683 19.5424C47.5477 23.824 48.5397 28.1269 48.5397 31.9861C48.5397 36.1696 47.3941 39.4528 45.2267 41.4667C43.816 42.7634 41.9817 43.5027 40.0661 43.5467L42.2699 40.6112L41.4165 39.9712L38.1504 44.3147L42.4917 47.5723L43.1317 46.7083L40.3541 44.6133C42.4409 44.5128 44.426 43.6822 45.9627 42.2667C48.3541 40.0373 49.6192 36.4875 49.6192 31.9968C49.6192 27.984 48.5952 23.5317 46.656 19.1157ZM26.4299 0.901334L23.3472 3.13493L23.9872 4.00747L28.3733 0.824535L25.1925 -3.57227L24.32 -2.93227L26.2912 -0.210132C23.3685 -0.690132 20.7659 -0.129066 18.7008 1.4496C15.9147 3.58293 14.3808 7.42294 14.3808 12.2784C14.3808 15.9051 15.2341 19.9584 16.8555 23.9925L17.856 23.5893C16.288 19.6896 15.4603 15.7792 15.4603 12.2827C15.4603 7.77067 16.8427 4.22933 19.3536 2.31147C21.248 0.854401 23.68 0.380801 26.4299 0.901334Z" fill="#E6F5F8"/>
<path d="M24.1344 24.4594L26.368 23.1495L22.7221 22.789L20.5696 24.0988L24.1344 24.4594ZM33.1179 6.47324L35.5477 5.1655L31.6245 2.8999L29.2864 4.20764L33.1179 6.47324Z" fill="white"/>
<path d="M33.1179 41.4477L35.6779 40.0823V38.4525L33.1179 37.4541V41.4477ZM33.1179 9.94901L35.6779 8.58367L35.5712 5.29834L33.1179 6.42901V9.94901Z" fill="#477FC1"/>
<path d="M29.2779 39.0982V35.4715L29.1008 35.3499C26.8651 33.7969 22.8267 30.3665 20.8107 24.7729L20.5696 24.0987L24.1344 24.4614L24.3477 24.9777C25.6277 28.1777 28.6379 31.0726 30.8864 32.4017C34.5643 34.5713 36.8469 34.2235 36.8469 31.4971C36.8469 29.255 34.9269 26.8187 30.8096 23.8171C25.7429 20.1841 21.5467 16.6769 21.5467 10.6374C21.5467 4.52325 27.3301 6.65019 29.1008 7.44805L29.2736 7.52485V4.20752L33.1136 6.47312V9.78619L33.28 9.91205C36.3989 12.3014 38.4448 14.9041 39.712 18.0977L39.9851 18.7867L36.7275 18.6033L36.5056 18.1595C35.4133 16.0262 33.1456 13.6369 31.0144 12.3803C27.5243 10.3217 25.5232 10.5414 25.5232 12.9819C25.5232 15.6145 27.9531 17.5899 31.1275 19.9003C36.3371 23.7062 41.0133 27.6593 41.0133 33.9462C41.0133 39.1814 37.1392 39.5633 33.3013 37.6198L33.1179 37.5281V41.3553L29.2779 39.0982Z" fill="#73D1F5"/>
<path d="M33.1699 9.66665L35.6002 8.35742L35.7013 8.54515L33.271 9.85438L33.1699 9.66665Z" fill="#283073"/>
<path d="M46.656 19.1157L45.6683 19.5424C47.5477 23.824 48.5397 28.1269 48.5397 31.9861C48.5397 36.1696 47.3941 39.4528 45.2267 41.4667C43.816 42.7634 41.9817 43.5027 40.0661 43.5467L42.2699 40.6112L41.4165 39.9712L38.1504 44.3147L42.4917 47.5723L43.1317 46.7083L40.3541 44.6133C42.4409 44.5128 44.426 43.6822 45.9627 42.2667C48.3541 40.0373 49.6192 36.4875 49.6192 31.9968C49.6192 27.984 48.5952 23.5317 46.656 19.1157ZM25.1925 -3.57227L24.32 -2.93227L26.2912 -0.210132C23.3685 -0.690132 20.7659 -0.129066 18.7008 1.4496C15.9147 3.58293 14.3808 7.42294 14.3808 12.2784C14.3808 15.9051 15.2341 19.9584 16.8555 23.9925L17.856 23.5893C16.288 19.6896 15.4603 15.7792 15.4603 12.2827C15.4603 7.77067 16.8427 4.22933 19.3536 2.31147C21.248 0.865068 23.6779 0.391468 26.4299 0.912002L23.3472 3.13493L23.9872 4.00747L28.3733 0.824535L25.1925 -3.57227Z" fill="#477FC1"/>
<path d="M40.0789 18.8619L39.9829 18.6699L42.4576 17.4262L42.2165 16.8289C40.9365 13.6523 38.8501 11.0689 35.6779 8.68806L35.5072 8.5622C35.4944 8.55185 35.484 8.53887 35.4766 8.52415C35.4693 8.50943 35.4651 8.49331 35.4645 8.47686V5.23633H35.6779V8.42353L35.8059 8.5174C39.0059 10.9195 41.1093 13.535 42.4192 16.7499L42.6987 17.4369C42.7092 17.4616 42.71 17.4894 42.7009 17.5148C42.6918 17.5401 42.6735 17.561 42.6496 17.5734L40.0789 18.8619ZM39.2341 38.3649L39.136 38.1771L41.7856 36.7734C42.9419 36.0587 43.5328 34.6699 43.5328 32.6475C43.5328 26.4011 38.7755 22.4737 33.4741 18.6785C30.2059 16.351 27.7141 14.3563 27.7141 11.6726C27.7135 11.458 27.7321 11.2439 27.7696 11.0326L27.9829 11.0731C27.9456 11.2736 27.9277 11.4772 27.9296 11.6811C27.9296 14.2625 30.3915 16.2209 33.6107 18.5078C38.9589 22.3478 43.7589 26.303 43.7589 32.6518C43.7589 34.7531 43.1339 36.2038 41.9029 36.9611L39.2341 38.3649ZM33.28 41.4582L33.1755 41.2726L35.4581 39.9926V38.5163H35.6715V40.0545C35.6717 40.0734 35.6669 40.0921 35.6576 40.1086C35.6482 40.1251 35.6346 40.1388 35.6181 40.1483L33.28 41.4582Z" fill="#283073"/>
<path d="M36.704 32.5665C35.7312 32.4257 34.5536 31.9606 33.2075 31.1819C30.8928 29.8465 27.7995 26.9366 26.4789 23.7153L26.2656 23.199L26.464 23.1179L26.6773 23.6342C27.9787 26.8171 31.0293 29.6865 33.3141 31.007C34.6368 31.7707 35.7888 32.2273 36.7275 32.3638L36.704 32.5665ZM23.0741 7.14352L22.9611 6.96219L25.3077 5.49446C26.2763 4.93979 27.6181 4.86939 29.3013 5.28112L29.2501 5.49446C27.6224 5.09126 26.3339 5.15312 25.4101 5.67792L23.0741 7.14352Z" fill="#283073"/>
<path d="M33.2245 41.4712C33.2057 41.4713 33.1872 41.4662 33.1712 41.4563L29.3312 39.1907C29.3151 39.1814 29.3017 39.168 29.2923 39.1519C29.283 39.1358 29.278 39.1175 29.2779 39.0989V35.5235L29.1456 35.4317C26.9013 33.8765 22.8352 30.4312 20.8256 24.8077L20.576 24.1336C20.5696 24.1167 20.5677 24.0985 20.5704 24.0806C20.5731 24.0628 20.5804 24.046 20.5916 24.0318C20.6028 24.0176 20.6174 24.0066 20.6341 23.9997C20.6508 23.9929 20.669 23.9905 20.6869 23.9928L24.2517 24.3469C24.2712 24.3489 24.2899 24.356 24.3056 24.3677C24.3214 24.3793 24.3337 24.395 24.3413 24.4131L24.5547 24.9293C25.8347 28.1144 28.8213 30.9837 31.0485 32.3021C33.2757 33.6205 35.0016 34.0088 35.9744 33.4584C36.5525 33.1277 36.8469 32.4643 36.8469 31.4893C36.8469 29.2856 34.9419 26.8749 30.8544 23.9053C25.76 20.2531 21.5467 16.7288 21.5467 10.6381C21.5467 8.80133 22.0672 7.532 23.0955 6.86853C24.9771 5.6504 28.0277 6.80027 29.2523 7.35067H29.2736V4.20827C29.2741 4.18953 29.2795 4.17126 29.2891 4.15521C29.2988 4.13916 29.3125 4.12587 29.3288 4.11665C29.3451 4.10742 29.3635 4.10256 29.3822 4.10254C29.401 4.10252 29.4194 4.10734 29.4357 4.11653L33.2757 6.38213C33.2913 6.39186 33.3042 6.40537 33.3131 6.42141C33.3221 6.43745 33.3268 6.4555 33.3269 6.47387V9.7336L33.4507 9.82747C34.804 10.8418 36.0353 12.0094 37.12 13.3069L36.9557 13.4413C35.8829 12.1583 34.666 11.003 33.3291 9.99813L33.1627 9.87013C33.1497 9.86041 33.1391 9.84787 33.1317 9.83346C33.1243 9.81904 33.1203 9.80313 33.12 9.78693V6.53573L29.4933 4.4024V7.5256C29.4937 7.54352 29.4894 7.56123 29.4808 7.57695C29.4722 7.59268 29.4596 7.60587 29.4443 7.6152C29.429 7.624 29.4117 7.62863 29.3941 7.62863C29.3765 7.62863 29.3592 7.624 29.344 7.6152L29.1712 7.53626C27.9787 7.0008 25.0112 5.87867 23.2171 7.0392C22.2549 7.66 21.7664 8.8696 21.7664 10.6296C21.7664 16.6179 25.9371 20.1059 30.9739 23.7283C35.1232 26.7427 37.056 29.2088 37.056 31.4872C37.056 32.5539 36.7253 33.2707 36.0747 33.6419C35.008 34.2456 33.2416 33.8445 30.9355 32.4835C28.6699 31.1459 25.6427 28.236 24.352 25.0061L24.1685 24.5496L20.8363 24.2125L21.0197 24.7267C23.0165 30.2947 27.0464 33.708 29.2693 35.2483L29.4485 35.3699C29.4622 35.38 29.4734 35.3932 29.4811 35.4084C29.4889 35.4235 29.4931 35.4403 29.4933 35.4573V39.0307L33.12 41.164V37.5373C33.12 37.5192 33.1248 37.5015 33.1338 37.4858C33.1427 37.4701 33.1556 37.457 33.1712 37.4477C33.1872 37.4388 33.2052 37.434 33.2235 37.434C33.2418 37.434 33.2598 37.4388 33.2757 37.4477L33.4571 37.5395C35.8037 38.7277 37.9371 38.9304 39.2853 38.0963C40.4331 37.3923 41.0155 35.9992 41.0155 33.9597C41.0155 27.7133 36.3584 23.788 31.1723 19.9907C27.9723 17.6632 25.5253 15.6685 25.5253 12.9869C25.5253 12.0568 25.8091 11.4232 26.3659 11.1053C27.296 10.5741 28.96 10.9859 31.1787 12.2936C33.3248 13.5608 35.5989 15.9565 36.7104 18.1197L36.9067 18.5059L39.9381 18.6744L39.7248 18.1432C39.3471 17.1862 38.8867 16.264 38.3488 15.3869L38.5301 15.276C39.0738 16.1584 39.5399 17.0863 39.9232 18.0493L40.1963 18.7363C40.2028 18.7531 40.205 18.7712 40.2028 18.7891C40.2005 18.807 40.1939 18.824 40.1835 18.8387C40.1731 18.8532 40.1593 18.8649 40.1433 18.8728C40.1273 18.8806 40.1095 18.8843 40.0917 18.8835L36.832 18.7C36.8136 18.6992 36.7957 18.6934 36.7803 18.6832C36.7649 18.6731 36.7526 18.659 36.7445 18.6424L36.5184 18.2029C35.424 16.0696 33.1819 13.7101 31.0677 12.4621C28.9195 11.1949 27.3301 10.7853 26.4683 11.276C25.984 11.5533 25.7365 12.1293 25.7365 12.9827C25.7365 15.564 28.1472 17.5224 31.296 19.8093C36.5291 23.6493 41.2267 27.6024 41.2267 33.9491C41.2267 36.0675 40.6101 37.5203 39.3941 38.2691C37.9733 39.1416 35.7675 38.9411 33.3589 37.7187L33.3312 37.7059V41.3581C33.3315 41.3771 33.3267 41.3958 33.3173 41.4123C33.3079 41.4288 33.2943 41.4425 33.2779 41.452C33.262 41.4627 33.2436 41.4693 33.2245 41.4712Z" fill="#283073"/>
<path d="M24.0811 24.5596L23.9765 24.374L26.0203 23.2306L22.7477 22.9063L20.6251 24.1863L20.5141 24.005L22.6667 22.6951C22.6864 22.6829 22.7097 22.6776 22.7328 22.6802L26.3787 23.0407C26.4013 23.0433 26.4225 23.0529 26.4393 23.0683C26.4562 23.0836 26.4678 23.1038 26.4725 23.126C26.4765 23.1484 26.4735 23.1714 26.464 23.192C26.4544 23.2126 26.4388 23.2298 26.4192 23.2412L24.0811 24.5596ZM33.1669 6.56922L33.0709 6.37935L35.3493 5.22949L31.6245 3.02362L29.44 4.29295L29.3312 4.10735L31.5733 2.79962C31.5899 2.79028 31.6087 2.78537 31.6277 2.78537C31.6468 2.78537 31.6655 2.79028 31.6821 2.79962L35.6267 5.14629C35.643 5.15622 35.6564 5.17038 35.6654 5.18727C35.6744 5.20416 35.6787 5.22316 35.6779 5.24229C35.6776 5.26138 35.672 5.28002 35.6619 5.2962C35.6517 5.31237 35.6373 5.32545 35.6203 5.33402L33.1669 6.56922ZM42.4917 47.6786C42.4687 47.6784 42.4463 47.6709 42.4277 47.6572L38.0864 44.3996C38.0638 44.3826 38.0488 44.3574 38.0448 44.3294C38.0408 44.3014 38.0481 44.2729 38.0651 44.2503L41.3227 39.9196C41.3311 39.9084 41.3416 39.899 41.3537 39.8918C41.3657 39.8847 41.3791 39.88 41.3929 39.878C41.4068 39.876 41.4209 39.8768 41.4345 39.8803C41.448 39.8838 41.4608 39.8899 41.472 39.8983L42.3253 40.5383C42.3368 40.5465 42.3464 40.557 42.3537 40.569C42.3611 40.5811 42.3658 40.5945 42.3678 40.6084C42.3698 40.6224 42.369 40.6366 42.3653 40.6502C42.3617 40.6638 42.3554 40.6765 42.3467 40.6876L40.2816 43.4396C42.0911 43.3459 43.8113 42.6239 45.1456 41.398C47.3003 39.3948 48.4267 36.1436 48.4267 31.9922C48.4267 28.1522 47.4368 23.8599 45.5659 19.5911C45.5543 19.5653 45.5535 19.5361 45.5635 19.5097C45.5735 19.4833 45.5935 19.4619 45.6192 19.4503L46.6069 19.0236C46.6331 19.014 46.6618 19.014 46.688 19.0236C46.7013 19.0287 46.7134 19.0365 46.7237 19.0464C46.734 19.0563 46.7421 19.0681 46.7477 19.0812C48.6912 23.51 49.7195 27.9794 49.7195 32.0007C49.7195 36.5212 48.4395 40.1074 46.0288 42.3474C44.5464 43.7158 42.6486 44.5486 40.6379 44.7132L43.1979 46.6332C43.2091 46.6416 43.2185 46.6522 43.2257 46.6642C43.2328 46.6763 43.2375 46.6896 43.2395 46.7035C43.2414 46.7173 43.2407 46.7315 43.2372 46.745C43.2337 46.7586 43.2276 46.7714 43.2192 46.7826L42.5792 47.6466C42.5616 47.6683 42.5365 47.6828 42.5088 47.6871L42.4917 47.6786ZM38.2997 44.293L42.4704 47.4226L42.9888 46.7292L40.2901 44.7047C40.273 44.6915 40.2602 44.6735 40.2534 44.6529C40.2465 44.6324 40.246 44.6103 40.2517 44.5895C40.2584 44.5686 40.271 44.5502 40.2881 44.5366C40.3052 44.5229 40.3259 44.5146 40.3477 44.5127C42.4117 44.4067 44.3737 43.5826 45.8944 42.1831C48.2645 39.9751 49.5211 36.4508 49.5211 31.9922C49.5211 28.0284 48.5141 23.6274 46.6091 19.2562L45.8176 19.6039C47.6757 23.8706 48.6549 28.1372 48.6549 31.9922C48.6549 36.2055 47.4987 39.51 45.3077 41.5495C43.8778 42.8617 42.0212 43.6119 40.0811 43.6615C40.0606 43.6623 40.0404 43.6573 40.0226 43.6471C40.0049 43.6369 39.9904 43.6219 39.9808 43.6039C39.9704 43.5868 39.965 43.5673 39.965 43.5474C39.965 43.5274 39.9704 43.5079 39.9808 43.4908L42.1141 40.6407L41.4293 40.133L38.2997 44.293ZM16.8533 24.0924C16.8392 24.0946 16.8248 24.0946 16.8107 24.0924C16.7846 24.0805 16.764 24.0592 16.7531 24.0327C15.1296 19.9943 14.272 15.926 14.272 12.278C14.272 7.38842 15.8208 3.51429 18.6325 1.36602C20.6464 -0.172113 23.2085 -0.767312 26.0523 -0.353445L24.2304 -2.86865C24.2146 -2.89175 24.2078 -2.91981 24.2112 -2.94758C24.2172 -2.97567 24.2331 -3.00066 24.256 -3.01798L25.1285 -3.65798C25.1516 -3.67418 25.1801 -3.68079 25.2079 -3.67642C25.2358 -3.67204 25.2609 -3.65701 25.2779 -3.63451L28.4608 0.762288C28.4769 0.78503 28.4834 0.81316 28.479 0.840667C28.4747 0.868173 28.4597 0.892873 28.4373 0.909488L24.0427 4.09455C24.0208 4.11224 23.9929 4.12059 23.9649 4.11779C23.937 4.115 23.9112 4.10128 23.8933 4.07962L23.2533 3.20496C23.2371 3.18188 23.2305 3.15341 23.2349 3.12555C23.2393 3.09769 23.2543 3.07262 23.2768 3.05562L26.1568 0.971354C23.5392 0.529754 21.2096 1.01829 19.4112 2.39429C16.9344 4.29295 15.5733 7.79375 15.5733 12.2695C15.5733 15.7575 16.3989 19.6551 17.9605 23.542C17.9657 23.555 17.9683 23.569 17.9681 23.583C17.9679 23.597 17.965 23.6109 17.9594 23.6237C17.9539 23.6366 17.9458 23.6483 17.9358 23.6581C17.9257 23.6678 17.9138 23.6755 17.9008 23.6807L16.9003 24.0839C16.8853 24.0898 16.8694 24.0926 16.8533 24.0924ZM24.3392 -0.274512C22.3361 -0.311512 20.3777 0.319757 18.7733 1.51962C16.0149 3.62522 14.5067 7.43962 14.5067 12.261C14.5067 15.8556 15.3451 19.8578 16.9323 23.8386L17.7365 23.5143C16.1707 19.653 15.36 15.7554 15.36 12.2695C15.36 7.72549 16.7573 4.16282 19.296 2.21509C21.1947 0.760154 23.68 0.269488 26.4533 0.796421C26.4742 0.800221 26.4935 0.810169 26.5087 0.824991C26.5239 0.839813 26.5343 0.858835 26.5387 0.879621C26.5432 0.899943 26.5416 0.921156 26.534 0.940541C26.5264 0.959925 26.5131 0.976597 26.496 0.98842L23.5093 3.15802L24.0043 3.86629L28.2283 0.809221L25.1733 -3.42331L24.4736 -2.91558L26.3808 -0.280912C26.3927 -0.263273 26.3991 -0.24247 26.3991 -0.221179C26.3991 -0.199888 26.3927 -0.179085 26.3808 -0.161446C26.3702 -0.143316 26.3543 -0.128883 26.3352 -0.120106C26.3161 -0.111329 26.2948 -0.108632 26.2741 -0.112379C25.6346 -0.218949 24.9875 -0.273172 24.3392 -0.274512Z" fill="#283073"/>
</svg>
