<svg width="44" height="60" viewBox="0 0 44 60" fill="none" xmlns="http://www.w3.org/2000/svg">
<path d="M59.1602 41.6617L59.1351 50.5406C59.1239 54.4908 56.5276 58.4356 51.3381 61.4514C40.8977 67.5187 23.9149 67.5141 13.4064 61.4471C8.11629 58.3928 5.47325 54.3833 5.4846 50.3804L5.50976 41.5015C5.49843 45.5044 8.14146 49.5139 13.4316 52.5682C23.9401 58.6352 40.9229 58.6398 51.3633 52.5725C56.5528 49.5567 59.1491 45.6119 59.1602 41.6617Z" fill="#9CC15E"/>
<path d="M59.1616 41.6597L59.1374 50.5426C59.125 54.488 56.5231 58.4334 51.3435 61.4469C40.8993 67.5224 23.9193 67.5103 13.4023 61.4469C8.11344 58.3973 5.47549 54.3793 5.48731 50.3855L5.49972 46.8273C5.58423 50.7606 8.21036 54.6698 13.4023 57.6711C23.9193 63.7345 40.8993 63.7345 51.3435 57.6711C56.5231 54.6576 59.125 50.7122 59.1374 46.7547L59.1498 41.8774C59.1616 41.8047 59.1616 41.7322 59.1616 41.6597Z" fill="#9CC15E"/>
<path d="M32.4053 66.3867C25.4619 66.3867 18.5108 64.8564 13.2061 61.7939C7.95705 58.7637 5.07229 54.71 5.084 50.3799L5.1094 41.501C5.11037 41.2803 5.28908 41.1016 5.50979 41.1016C5.73049 41.1025 5.91018 41.2822 5.91018 41.5029C5.89846 45.5342 8.64065 49.3408 13.6319 52.2217C24.0156 58.2197 40.8526 58.2188 51.1621 52.2275C56.0508 49.3857 58.749 45.6328 58.7598 41.6611C58.7608 41.4404 58.9395 41.2617 59.1602 41.2617C59.3809 41.2627 59.5606 41.4424 59.5606 41.6631L59.5352 50.542C59.5235 54.8096 56.6836 58.8076 51.5391 61.7979C46.2754 64.8574 39.3438 66.3867 32.4053 66.3867ZM5.89846 45.3809L5.88478 50.3818C5.87404 54.4131 8.61623 58.2197 13.6065 61.1006C23.9903 67.0986 40.8272 67.0986 51.1367 61.1064C56.0254 58.2646 58.7237 54.5117 58.7344 50.54L58.749 45.5342C57.5654 48.3135 55.1133 50.8555 51.5645 52.9189C41.0332 59.04 23.8369 59.0381 13.2315 52.915C9.58986 50.8125 7.08693 48.2188 5.89846 45.3809Z" fill="#404040"/>
<path d="M51.227 30.5965C61.7354 36.6636 61.7987 46.5006 51.3506 52.5724C40.9103 58.6397 23.9274 58.6352 13.419 52.5681C2.91007 46.5008 2.84718 36.664 13.2876 30.5967C23.7357 24.5249 40.7181 24.5292 51.227 30.5965Z" fill="white"/>
<path d="M51.3553 52.5759C40.9111 58.6393 23.9317 58.6393 13.4147 52.564C6.41922 48.5338 4.05901 42.8215 6.34654 37.6658C6.28626 38.053 6.26203 38.4402 6.26203 38.8397C6.26203 47.5292 17.6866 54.5729 31.7858 54.5729C45.8856 54.5729 57.322 47.5292 57.322 38.8397C57.322 37.4843 57.0437 36.1772 56.5231 34.9307C61.2796 40.6914 59.5729 47.7955 51.3553 52.5759Z" fill="#E9EDF4"/>
<path d="M32.418 57.5076C25.4746 57.5076 18.5235 55.9773 13.2188 52.9148C7.98732 49.8943 5.10256 45.8542 5.0967 41.5398C5.09084 37.2576 7.92775 33.2478 13.086 30.2507C23.6231 24.1277 40.8213 24.1287 51.4268 30.2498C56.6572 33.2703 59.541 37.3093 59.5479 41.6228C59.5537 45.907 56.7139 49.9187 51.5518 52.9187C46.2881 55.9783 39.3565 57.5076 32.418 57.5076ZM32.2315 26.447C25.4346 26.447 18.6465 27.9451 13.4883 30.9421C8.58693 33.7908 5.89162 37.5535 5.8965 41.5388C5.90236 45.5564 8.64455 49.3503 13.6192 52.2214C24.0049 58.2195 40.8399 58.2185 51.1494 52.2273C56.0547 49.3767 58.7529 45.6111 58.7481 41.6238C58.7422 37.6072 56 33.8142 51.0264 30.9431C45.835 27.9451 39.0283 26.447 32.2315 26.447Z" fill="#404040"/>
<path d="M32.4181 52.2808C26.1802 52.2808 20.1373 50.8566 15.84 48.3758C12.3475 46.3596 10.3419 43.8658 10.3383 41.534C10.3348 39.2328 12.2967 36.7722 15.7194 34.7819C19.9813 32.3059 25.9994 30.8853 32.2314 30.8853C38.4682 30.8853 44.5099 32.3082 48.806 34.789C52.2985 36.8053 54.3029 39.299 54.3065 41.6297C54.31 43.932 52.3458 46.395 48.9183 48.3877C44.6612 50.8613 38.6466 52.2808 32.4181 52.2808Z" fill="white"/>
<path d="M54.3089 41.6355C54.3089 43.9349 52.3481 46.3917 48.923 48.3886C44.663 50.8574 38.6478 52.2856 32.4152 52.2856C26.1826 52.2856 20.1314 50.8574 15.8352 48.3765C12.3493 46.3554 10.3407 43.8623 10.3407 41.5386C10.3407 40.4978 10.7402 39.4207 11.5025 38.3678C12.5792 44.5036 21.1602 49.2842 31.592 49.2842C42.7507 49.2842 51.8033 43.8139 51.8033 37.0608V36.9639C53.4248 38.4646 54.3089 40.0864 54.3089 41.6355Z" fill="#E9EDF4"/>
<path d="M32.418 52.6816C26.1143 52.6816 19.999 51.2383 15.6397 48.7227C12.0205 46.6318 9.9424 44.0127 9.93752 41.5352C9.93459 39.0879 11.9688 36.5 15.5186 34.4365C19.8389 31.9258 25.9307 30.4854 32.2315 30.4854C38.5362 30.4854 44.6504 31.9277 49.0059 34.4424C52.625 36.5322 54.7022 39.1514 54.7071 41.6289C54.71 44.0781 52.6729 46.668 49.1192 48.7334C44.8018 51.2422 38.7139 52.6816 32.418 52.6816ZM32.2315 31.2861C26.0674 31.2861 20.1231 32.6865 15.9209 35.1279C12.624 37.0449 10.7354 39.3799 10.7383 41.5332C10.7412 43.7178 12.6738 46.0859 16.0401 48.0293C20.2813 50.4775 26.251 51.8809 32.418 51.8809C38.5772 51.8809 44.5176 50.4814 48.7168 48.042C52.0176 46.123 53.9092 43.7861 53.9063 41.6309C53.9033 39.4453 51.9707 37.0781 48.6055 35.1357C44.3682 32.6885 38.4004 31.2861 32.2315 31.2861Z" fill="#404040"/>
<path d="M32.3436 44.2891C32.4369 44.2352 32.5422 44.1931 32.6597 44.1673C33.753 43.9236 34.7295 43.5746 35.5976 43.1155L32.4012 41.2579C31.5989 41.5297 30.8859 41.7311 30.2543 41.867C29.6268 42.0051 28.9915 42.0544 28.3448 42.0121C27.6978 41.9748 27.1003 41.7921 26.5561 41.4758C26.0724 41.1947 25.7468 40.8691 25.575 40.492C25.4031 40.1195 25.4176 39.7189 25.6261 39.2903C25.8269 38.8615 26.2336 38.44 26.8386 38.0253L25.8632 37.4584C25.7463 37.3905 25.682 37.3062 25.6743 37.2125C25.675 37.1188 25.7279 37.0368 25.8496 36.9666C25.9714 36.8963 26.1211 36.8612 26.2829 36.8611C26.4528 36.8611 26.5981 36.8987 26.715 36.9666L27.6784 37.5264C28.6316 37.0181 29.5962 36.6387 30.5723 36.3833C30.9248 36.2872 31.2398 36.3201 31.518 36.4818C31.6671 36.5684 31.7555 36.6761 31.767 36.8049C31.7864 36.9338 31.7131 37.0462 31.5427 37.1446C31.4859 37.1774 31.3967 37.2102 31.2631 37.2406C30.4085 37.4772 29.6018 37.7981 28.8433 38.2034L32.1526 40.1266C32.9834 39.8291 33.7125 39.6089 34.3443 39.4589C34.972 39.3114 35.6152 39.2575 36.2822 39.2973C36.9454 39.3395 37.5792 39.5339 38.1838 39.8852C38.6756 40.171 38.9849 40.5061 39.1202 40.8902C39.2516 41.2767 39.1928 41.6796 38.9355 42.099C38.6864 42.5183 38.2556 42.9258 37.6467 43.3194L38.6342 43.8933C38.7551 43.9635 38.8154 44.0455 38.8149 44.1345C38.8144 44.2282 38.7452 44.3102 38.6153 44.3851C38.4936 44.4554 38.36 44.4905 38.2063 44.4953C38.0526 44.4952 37.9114 44.4601 37.7824 44.3851L36.7948 43.8112C35.72 44.357 34.5611 44.774 33.3137 45.0645C33.1518 45.102 32.9819 45.1114 32.8042 45.0925C32.6263 45.0738 32.4687 45.0294 32.3478 44.9591C32.1906 44.8677 32.1145 44.7575 32.1031 44.6287C32.0916 44.4999 32.1772 44.3852 32.3436 44.2891ZM36.4495 42.6237C37.6755 41.8084 37.8048 41.1221 36.8414 40.5622C36.4786 40.3514 36.0341 40.2858 35.4997 40.3609C34.9736 40.4358 34.2893 40.6114 33.4626 40.8879L36.4495 42.6237ZM28.0358 38.721C27.5483 39.0865 27.2673 39.4449 27.2007 39.7915C27.1259 40.1382 27.3062 40.4357 27.7335 40.684C28.1406 40.9206 28.609 41.0144 29.1433 40.9627C29.6773 40.9112 30.3253 40.7566 31.0952 40.4989L28.0358 38.721Z" fill="#404040"/>
<path d="M59.1602 29.4917L59.1351 38.3706C59.1239 42.3209 56.5276 46.2656 51.3381 49.2814C40.8977 55.3487 23.9149 55.3442 13.4064 49.2771C8.11629 46.2229 5.47325 42.2134 5.4846 38.2104L5.50976 29.3315C5.49843 33.3345 8.14146 37.344 13.4316 40.3982C23.9401 46.4653 40.9229 46.4698 51.3633 40.4025C56.5528 37.3867 59.1491 33.442 59.1602 29.4917Z" fill="#9CC15E"/>
<path d="M59.1616 29.4893L59.1374 38.3722C59.125 42.3176 56.5231 46.263 51.3435 49.2765C40.8993 55.352 23.9193 55.3398 13.4023 49.2765C8.11344 46.2268 5.47549 42.2089 5.48731 38.2151L5.49972 34.6569C5.58423 38.5902 8.21036 42.4994 13.4023 45.5007C23.9193 51.5641 40.8993 51.5641 51.3435 45.5007C56.5231 42.4872 59.125 38.5418 59.1374 34.5843L59.1498 29.707C59.1616 29.6343 59.1616 29.5618 59.1616 29.4893Z" fill="#9CC15E"/>
<path d="M32.4043 54.2168C25.4619 54.2168 18.5098 52.6855 13.2061 49.624C7.95705 46.5928 5.07229 42.5391 5.084 38.209L5.1094 29.3301C5.11037 29.1094 5.28908 28.9307 5.50979 28.9307C5.73049 28.9316 5.91018 29.1113 5.91018 29.332C5.89846 33.3633 8.64065 37.1699 13.6319 40.0518C24.0176 46.0479 40.8545 46.0488 51.1621 40.0566C56.0508 37.2158 58.749 33.4629 58.7598 29.4902C58.7608 29.2695 58.9395 29.0908 59.1602 29.0908C59.3809 29.0918 59.5606 29.2715 59.5606 29.4922L59.5352 38.3711C59.5235 42.6396 56.6836 46.6377 51.5391 49.627C46.2744 52.6865 39.3438 54.2168 32.4043 54.2168ZM5.89846 33.21L5.88478 38.2109C5.87404 42.2422 8.61623 46.0488 13.6065 48.9307C23.9922 54.9268 40.8272 54.9268 51.1367 48.9355C56.0254 46.0947 58.7237 42.3418 58.7344 38.3691L58.749 33.3633C57.5654 36.1436 55.1133 38.6855 51.5645 40.748C41.0342 46.8691 23.8379 46.8672 13.2315 40.7451C9.58986 38.6416 7.08693 36.0469 5.89846 33.21Z" fill="#404040"/>
<path d="M51.227 18.4266C61.7354 24.4936 61.7987 34.3307 51.3506 40.4025C40.9103 46.4698 23.9274 46.4653 13.419 40.3982C2.91007 34.3309 2.84718 24.494 13.2876 18.4268C23.7357 12.355 40.7181 12.3593 51.227 18.4266Z" fill="white"/>
<path d="M51.3553 40.4055C40.9111 46.4688 23.9317 46.4688 13.4147 40.3936C6.41922 36.3634 4.05901 30.6511 6.34654 25.4954C6.28626 25.8826 6.26203 26.2698 6.26203 26.6693C6.26203 35.3588 17.6866 42.4025 31.7858 42.4025C45.8856 42.4025 57.322 35.3588 57.322 26.6693C57.322 25.3138 57.0437 24.0068 56.5231 22.7603C61.2796 28.521 59.5729 35.6251 51.3553 40.4055Z" fill="#E9EDF4"/>
<path d="M32.417 45.3369C25.4746 45.3379 18.5225 43.8066 13.2188 40.7451C7.98733 37.7246 5.10256 33.6846 5.0967 29.3701C5.09084 25.0879 7.92776 21.0781 13.086 18.0811C23.6231 11.958 40.8213 11.957 51.4268 18.0801C56.6572 21.0996 59.541 25.1387 59.5479 29.4521C59.5537 33.7373 56.7139 37.748 51.5518 40.748C46.2871 43.8076 39.3565 45.3369 32.417 45.3369ZM32.2305 14.2764C25.4336 14.2764 18.6455 15.7754 13.4883 18.7725C8.58694 21.6211 5.89163 25.3838 5.89651 29.3691C5.90237 33.3867 8.64456 37.1807 13.6192 40.0518C24.0049 46.0479 40.8418 46.0488 51.1494 40.0566C56.0547 37.2061 58.753 33.4404 58.7481 29.4541C58.7422 25.4375 56 21.6445 51.0264 18.7734C45.835 15.7754 39.0283 14.2764 32.2305 14.2764Z" fill="#404040"/>
<path d="M32.4181 40.1104C26.1802 40.1104 20.1373 38.6862 15.84 36.2054C12.3475 34.1892 10.3419 31.6954 10.3383 29.3636C10.3348 27.0624 12.2967 24.6018 15.7194 22.6115C19.9813 20.1355 25.9994 18.7148 32.2314 18.7148C38.4682 18.7148 44.5099 20.1378 48.806 22.6186C52.2985 24.6349 54.3029 27.1286 54.3065 29.4593C54.31 31.7616 52.3458 34.2246 48.9183 36.2173C44.6612 38.6909 38.6466 40.1104 32.4181 40.1104Z" fill="white"/>
<path d="M54.3089 29.4651C54.3089 31.7645 52.3481 34.2213 48.923 36.2182C44.663 38.687 38.6478 40.1152 32.4152 40.1152C26.1826 40.1152 20.1314 38.687 15.8352 36.2061C12.3493 34.1849 10.3407 31.6919 10.3407 29.3682C10.3407 28.3274 10.7402 27.2503 11.5025 26.1974C12.5792 32.3332 21.1602 37.1138 31.592 37.1138C42.7507 37.1138 51.8033 31.6435 51.8033 24.8904V24.7935C53.4248 26.2941 54.3089 27.916 54.3089 29.4651Z" fill="#E9EDF4"/>
<path d="M32.418 40.5107C26.1123 40.5107 19.9971 39.0674 15.6397 36.5518C12.0205 34.4619 9.9424 31.8428 9.93752 29.3643C9.93459 26.917 11.9688 24.3291 15.5186 22.2656C19.8408 19.7549 25.9326 18.3145 32.2315 18.3145C38.5371 18.3145 44.6514 19.7578 49.0059 22.2725C52.625 24.3613 54.7022 26.9795 54.7071 29.458C54.71 31.9072 52.6729 34.4971 49.1192 36.5635C44.8028 39.0723 38.7158 40.5107 32.418 40.5107ZM32.2315 19.1152C26.0694 19.1152 20.124 20.5156 15.9209 22.957C12.624 24.874 10.7354 27.209 10.7383 29.3623C10.7412 31.5479 12.6738 33.916 16.0401 35.8584C20.2793 38.3066 26.249 39.71 32.418 39.71C38.5781 39.71 44.5196 38.3115 48.7168 35.8721C52.0176 33.9521 53.9092 31.6152 53.9063 29.46C53.9033 27.2744 51.9707 24.9072 48.6055 22.9658C44.3692 20.5186 38.4014 19.1152 32.2315 19.1152Z" fill="#404040"/>
<path d="M32.3436 32.1192C32.4369 32.0653 32.5422 32.0232 32.6597 31.9973C33.753 31.7537 34.7295 31.4047 35.5976 30.9456L32.4012 29.088C31.5989 29.3597 30.8859 29.5612 30.2543 29.697C29.6268 29.8352 28.9915 29.8845 28.3448 29.8422C27.6978 29.8049 27.1003 29.6221 26.5561 29.3059C26.0724 29.0248 25.7468 28.6991 25.575 28.3221C25.4031 27.9496 25.4176 27.549 25.6261 27.1204C25.8269 26.6916 26.2336 26.27 26.8386 25.8554L25.8632 25.2885C25.7463 25.2206 25.682 25.1363 25.6743 25.0426C25.675 24.9488 25.7279 24.8669 25.8496 24.7966C25.9714 24.7264 26.1211 24.6912 26.2829 24.6912C26.4528 24.6912 26.5981 24.7287 26.715 24.7967L27.6784 25.3565C28.6316 24.8481 29.5962 24.4687 30.5723 24.2134C30.9248 24.1173 31.2398 24.1502 31.518 24.3118C31.6671 24.3985 31.7555 24.5062 31.767 24.635C31.7864 24.7639 31.7131 24.8763 31.5427 24.9746C31.4859 25.0074 31.3967 25.0403 31.2631 25.0707C30.4085 25.3073 29.6018 25.6282 28.8433 26.0335L32.1526 27.9567C32.9834 27.6591 33.7125 27.439 34.3443 27.289C34.972 27.1415 35.6152 27.0876 36.2822 27.1274C36.9454 27.1695 37.5792 27.364 38.1838 27.7153C38.6756 28.0011 38.9849 28.3362 39.1202 28.7203C39.2516 29.1068 39.1928 29.5097 38.9355 29.929C38.6864 30.3484 38.2556 30.7559 37.6467 31.1494L38.6342 31.7234C38.7551 31.7936 38.8154 31.8756 38.8149 31.9645C38.8144 32.0583 38.7452 32.1403 38.6153 32.2152C38.4936 32.2855 38.36 32.3206 38.2063 32.3253C38.0526 32.3253 37.9114 32.2901 37.7824 32.2152L36.7948 31.6413C35.72 32.1871 34.5611 32.604 33.3137 32.8946C33.1518 32.932 32.9819 32.9414 32.8042 32.9226C32.6263 32.9039 32.4687 32.8595 32.3478 32.7892C32.1906 32.6978 32.1145 32.5876 32.1031 32.4588C32.0916 32.33 32.1772 32.2152 32.3436 32.1192ZM36.4495 30.4537C37.6755 29.6385 37.8048 28.9522 36.8414 28.3923C36.4786 28.1815 36.0341 28.1159 35.4997 28.191C34.9736 28.2659 34.2893 28.4415 33.4626 28.7179L36.4495 30.4537ZM28.0358 26.5511C27.5483 26.9165 27.2673 27.2749 27.2007 27.6216C27.1259 27.9683 27.3062 28.2658 27.7335 28.5141C28.1406 28.7507 28.609 28.8444 29.1433 28.7928C29.6773 28.7413 30.3253 28.5867 31.0952 28.329L28.0358 26.5511Z" fill="#404040"/>
<path d="M62.5161 17.6167L62.491 26.4956C62.4798 30.4459 59.8835 34.3906 54.694 37.4064C44.2536 43.4737 27.2708 43.4692 16.7623 37.4021C11.4722 34.3479 8.82913 30.3384 8.84048 26.3354L8.86564 17.4565C8.8543 21.4595 11.4973 25.469 16.7875 28.5232C27.2959 34.5903 44.2788 34.5948 54.7191 28.5275C59.9086 25.5117 62.5049 21.567 62.5161 17.6167Z" fill="#9CC15E"/>
<path d="M62.5175 17.6147L62.4933 26.4977C62.4809 30.4431 59.879 34.3885 54.6994 37.402C44.2552 43.4775 27.2751 43.4653 16.7582 37.402C11.4693 34.3523 8.83137 30.3344 8.84319 26.3405L8.8556 22.7824C8.9401 26.7156 11.5662 30.6248 16.7582 33.6262C27.2751 39.6895 44.2552 39.6895 54.6994 33.6262C59.879 30.6127 62.4809 26.6673 62.4933 22.7098L62.5057 17.8325C62.5175 17.7598 62.5175 17.6873 62.5175 17.6147Z" fill="#9CC15E"/>
<path d="M35.7617 42.3423C28.8174 42.3423 21.8672 40.811 16.5625 37.7485C11.3125 34.7183 8.42775 30.6646 8.44045 26.3345L8.46486 17.4556C8.46584 17.2349 8.64455 17.0562 8.86525 17.0562C9.08596 17.0571 9.26564 17.2368 9.26564 17.4575C9.2549 21.4888 11.9971 25.2954 16.9873 28.1763C27.3711 34.1743 44.208 34.1733 54.5176 28.1821C59.4063 25.3403 62.1045 21.5874 62.1152 17.6157C62.1162 17.395 62.2949 17.2163 62.5156 17.2163C62.7363 17.2173 62.916 17.397 62.916 17.6177L62.8916 26.4966C62.8789 30.7651 60.0391 34.7622 54.8955 37.7524C49.6309 40.812 42.7002 42.3423 35.7617 42.3423ZM9.2549 21.3354L9.24123 26.3364C9.22951 30.3677 11.9717 34.1743 16.9629 37.0552C27.3438 43.0513 44.1807 43.0522 54.4932 37.061C59.3809 34.2192 62.0791 30.4673 62.0908 26.4946L62.1045 21.4868C60.9219 24.2681 58.4697 26.8101 54.9199 28.8735C44.3887 34.9946 27.1924 34.9927 16.5869 28.8696C12.9463 26.7671 10.4424 24.1733 9.2549 21.3354Z" fill="#404040"/>
<path d="M54.5828 6.55158C65.0913 12.6186 65.1546 22.4557 54.7065 28.5275C44.2661 34.5948 27.2833 34.5902 16.7748 28.5232C6.26595 22.4559 6.20306 12.619 16.6434 6.55175C27.0915 0.479988 44.0739 0.484267 54.5828 6.55158Z" fill="white"/>
<path d="M54.7112 28.531C44.267 34.5943 27.2875 34.5943 16.7706 28.519C9.77509 24.4888 7.41489 18.7765 9.70241 13.6209C9.64213 14.0081 9.6179 14.3953 9.6179 14.7948C9.6179 23.4842 21.0425 30.5279 35.1417 30.5279C49.2415 30.5279 60.6779 23.4842 60.6779 14.7948C60.6779 13.4393 60.3996 12.1323 59.879 10.8857C64.6354 16.6465 62.9288 23.7506 54.7112 28.531Z" fill="#E9EDF4"/>
<path d="M35.7735 33.4634C28.8301 33.4634 21.8789 31.9321 16.5742 28.8696C11.3428 25.8491 8.459 21.8101 8.45314 17.4956C8.44728 13.2124 11.2842 9.20361 16.4424 6.20654C26.9795 0.0834961 44.1778 0.081543 54.7832 6.20459C60.0137 9.2251 62.8975 13.2642 62.9033 17.5776C62.9092 21.8618 60.0694 25.8735 54.9072 28.8735C49.6436 31.9331 42.7119 33.4634 35.7735 33.4634ZM35.5889 2.40186C28.791 2.40186 22.0029 3.8999 16.8447 6.89795C11.9434 9.74561 9.24709 13.5093 9.25295 17.4937C9.25881 21.5112 12.001 25.3052 16.9746 28.1763C27.3574 34.1724 44.1944 34.1733 54.5049 28.1821C59.4102 25.3315 62.1084 21.5659 62.1035 17.5786C62.0977 13.562 59.3555 9.76904 54.3828 6.89795C49.1924 3.90088 42.3858 2.40186 35.5889 2.40186Z" fill="#404040"/>
<path d="M35.774 28.2354C29.5361 28.2354 23.4931 26.8112 19.1958 24.3304C15.7034 22.3142 13.6977 19.8204 13.6942 17.4886C13.6906 15.1874 15.6526 12.7268 19.0753 10.7365C23.3371 8.26046 29.3552 6.83984 35.5873 6.83984C41.824 6.83984 47.8658 8.26282 52.1619 10.7436C55.6544 12.7599 57.6588 15.2536 57.6624 17.5843C57.6659 19.8866 55.7016 22.3496 52.2742 24.3423C48.0171 26.8159 42.0025 28.2354 35.774 28.2354Z" fill="white"/>
<path d="M57.6647 17.5901C57.6647 19.8895 55.704 22.3463 52.2789 24.3432C48.0188 26.812 42.0037 28.2402 35.7711 28.2402C29.5384 28.2402 23.4872 26.812 19.1911 24.3311C15.7052 22.3099 13.6966 19.8169 13.6966 17.4932C13.6966 16.4524 14.096 15.3753 14.8583 14.3224C15.935 20.4582 24.5161 25.2388 34.9479 25.2388C46.1066 25.2388 55.1592 19.7685 55.1592 13.0154V12.9185C56.7807 14.4191 57.6647 16.041 57.6647 17.5901Z" fill="#E9EDF4"/>
<path d="M35.7744 28.6362C29.4697 28.6362 23.3545 27.1929 18.9961 24.6772C15.376 22.5864 13.2979 19.9673 13.294 17.4897C13.2901 15.0425 15.3242 12.4556 18.874 10.3911C23.1944 7.88037 29.2862 6.43994 35.5869 6.43994C41.8926 6.43994 48.0069 7.88232 52.3623 10.397C55.9815 12.4868 58.0586 15.1069 58.0625 17.5835C58.0664 20.0317 56.0303 22.6216 52.4756 24.688C48.1572 27.1968 42.0694 28.6362 35.7744 28.6362ZM35.5869 7.24072C29.4229 7.24072 23.4785 8.64111 19.2764 11.0825C15.9795 12.9995 14.0908 15.3345 14.0947 17.4878C14.0967 19.6733 16.0293 22.0405 19.3965 23.9839C23.6367 26.4321 29.6065 27.8354 35.7744 27.8354C41.9326 27.8354 47.874 26.436 52.0733 23.9966C55.375 22.0776 57.2656 19.7407 57.2617 17.5854C57.2598 15.4009 55.3272 13.0337 51.9619 11.0903C47.7246 8.64307 41.7569 7.24072 35.5869 7.24072Z" fill="#404040"/>
<path d="M35.6995 20.2442C35.7928 20.1903 35.8981 20.1482 36.0156 20.1223C37.1089 19.8787 38.0854 19.5297 38.9535 19.0706L35.7571 17.213C34.9548 17.4847 34.2418 17.6862 33.6102 17.822C32.9826 17.9602 32.3474 18.0095 31.7007 17.9672C31.0537 17.9299 30.4562 17.7471 29.912 17.4309C29.4283 17.1498 29.1027 16.8241 28.9308 16.4471C28.759 16.0746 28.7735 15.674 28.982 15.2454C29.1828 14.8166 29.5895 14.395 30.1945 13.9804L29.219 13.4135C29.1022 13.3456 29.0378 13.2613 29.0302 13.1676C29.0308 13.0738 29.0838 12.9919 29.2055 12.9216C29.3272 12.8514 29.477 12.8162 29.6388 12.8162C29.8087 12.8162 29.954 12.8537 30.0709 12.9217L31.0343 13.4815C31.9875 12.9731 32.9521 12.5937 33.9282 12.3384C34.2807 12.2423 34.5957 12.2752 34.8739 12.4368C35.023 12.5235 35.1114 12.6312 35.1229 12.76C35.1423 12.8889 35.0689 13.0013 34.8986 13.0996C34.8418 13.1324 34.7526 13.1653 34.6189 13.1957C33.7644 13.4323 32.9577 13.7532 32.1992 14.1585L35.5085 16.0817C36.3393 15.7841 37.0684 15.564 37.7002 15.414C38.3279 15.2665 38.9711 15.2126 39.6381 15.2524C40.3012 15.2945 40.935 15.489 41.5397 15.8403C42.0314 16.1261 42.3408 16.4612 42.4761 16.8453C42.6075 17.2318 42.5487 17.6347 42.2914 18.054C42.0423 18.4734 41.6115 18.8809 41.0025 19.2744L41.9901 19.8484C42.111 19.9186 42.1713 20.0006 42.1708 20.0895C42.1702 20.1833 42.1011 20.2652 41.9712 20.3402C41.8495 20.4105 41.7159 20.4456 41.5621 20.4503C41.4085 20.4503 41.2672 20.4151 41.1383 20.3402L40.1507 19.7663C39.0758 20.3121 37.917 20.729 36.6696 21.0196C36.5076 21.057 36.3378 21.0664 36.1601 21.0476C35.9822 21.0289 35.8246 20.9845 35.7037 20.9142C35.5464 20.8228 35.4704 20.7126 35.459 20.5838C35.4475 20.455 35.5331 20.3402 35.6995 20.2442ZM39.8054 18.5787C41.0314 17.7635 41.1606 17.0772 40.1973 16.5173C39.8345 16.3065 39.39 16.2409 38.8556 16.316C38.3294 16.3909 37.6452 16.5665 36.8185 16.8429L39.8054 18.5787ZM31.3916 14.6761C30.9042 15.0415 30.6232 15.3999 30.5566 15.7466C30.4818 16.0933 30.6621 16.3908 31.0893 16.6391C31.4965 16.8757 31.9649 16.9694 32.4992 16.9178C33.0332 16.8663 33.6812 16.7117 34.4511 16.454L31.3916 14.6761Z" fill="#404040"/>
</svg>
