<svg width="72" height="72" viewBox="0 0 72 72" fill="none" xmlns="http://www.w3.org/2000/svg">
<path d="M29.7078 28.1766C26.6855 29.9299 24.4044 34.0179 24.4044 37.3182C24.425 39.1815 25.1685 40.5464 26.4083 41.0251C26.2463 42.0323 25.2032 48.5209 25.1354 48.9425C25.1014 49.1644 25.3385 49.3232 25.5294 49.2134L34.4787 44.0641C34.5628 44.0155 34.6258 43.8833 34.6038 43.7735L33.2617 37.2748C34.5252 35.4115 35.278 33.2111 35.278 31.3665C35.2506 27.7769 32.6297 26.4841 29.7078 28.1766ZM25.7444 48.4783L26.0208 46.7286C26.1281 46.6665 32.3534 43.0714 31.9702 43.2927C32.0813 43.3308 33.8275 43.9297 33.7164 43.8915L25.7444 48.4783ZM33.9917 43.4261L32.1759 42.8036L30.8783 36.4424C32.2221 34.4583 32.8873 32.181 32.8873 30.5413C32.8694 29.4612 32.555 28.4877 32.2235 27.9687C33.9773 28.0269 34.7347 29.5697 34.7486 31.3685C34.7486 33.1388 34.0061 35.2698 32.7612 37.0669C32.7209 37.1269 32.7054 37.2003 32.7198 37.2717L33.9917 43.4261Z" fill="#4B545D"/>
<path d="M62.9811 38.8486C62.8621 38.7697 62.2775 38.7641 62.134 38.7641C62.4796 36.5575 62.3821 34.5161 62.3529 34.0622C62.3555 34.0579 62.3612 34.0569 62.3638 34.0524C63.7432 31.5728 63.952 29.3518 62.9842 27.4513C62.764 27.0191 62.5964 26.5258 62.4879 25.9851C62.097 24.038 61.1385 22.6152 59.7147 21.8687C58.0168 20.9774 55.7234 21.0766 53.2573 22.1385C52.7599 22.3526 52.1995 22.5211 51.5925 22.64C51.4447 22.6687 51.3201 22.7177 51.1774 22.7509L51.1329 4.924C51.1329 4.82875 51.0799 4.74396 50.9951 4.69109L50.9889 4.68954L46.1857 1.88751C46.1051 1.84098 46.0058 1.83891 45.9231 1.88544C37.8421 6.42163 31.4175 7.30545 26.2997 4.60876L25.1075 3.91313C25.0454 3.87798 24.972 3.86867 24.9038 3.88625C24.8345 3.90589 24.7766 3.95139 24.7425 4.01446C19.4096 13.7405 12.5688 20.9922 3.83071 26.1846C3.82063 26.189 3.80951 26.1872 3.79969 26.1929C3.718 26.2405 3.66734 26.3283 3.66734 26.4235L3.75316 51.7484C3.75316 56.7071 6.16918 62.1663 10.8713 64.9258L15.4568 67.6032C19.6466 70.1347 25.0861 70.4036 29.988 69.9888C30.0516 69.9782 30.1152 69.9464 30.1576 69.904C34.694 65.0413 38.4754 60.3361 41.5469 55.7353C41.3716 58.6418 41.3815 62.1249 41.4339 65.9652V66.0076C42.0247 69.7198 47.5664 69.8838 51.3128 69.4064C59.1268 68.39 67.5126 64.0275 67.068 59.4006C67.2164 47.5629 65.8823 40.8393 62.9811 38.8486ZM51.7032 36.3086C52.5635 36.2838 53.3855 35.897 53.9604 35.2487C54.9986 34.0741 55.8868 32.5779 56.6013 30.8015C56.9104 30.0353 57.2558 29.4862 57.688 29.0736C58.508 28.2899 59.3279 27.9259 60.2162 27.9507C60.7373 27.9672 61.1923 28.2981 61.3484 28.7738C61.7165 29.8913 61.8807 31.4456 61.8659 33.4702L61.8163 33.9464C61.9002 34.1982 62.1167 39.2481 60.514 42.1629C59.0592 44.7688 54.7812 43.5769 52.6258 42.004C52.3323 41.7946 51.9362 41.4656 51.5062 41.0339C51.5041 40.1261 51.0523 39.2604 50.2959 38.7612C49.4356 38.1946 48.9227 37.3467 48.7273 36.169C48.711 36.07 48.7844 35.9653 48.8886 35.9901C49.6714 36.2352 50.5937 36.3324 51.7032 36.3086ZM50.3703 42.3216C51.3013 45.1146 54.4936 46.3732 57.3693 46.9488C57.3161 47.0627 56.2758 49.2935 56.3423 49.1511C54.4257 48.7487 52.8587 48.1451 51.5775 47.3087C49.8559 46.1815 49.2325 44.0284 50.3703 42.3216ZM49.3751 43.317C48.7971 43.6719 48.239 44.0661 47.6907 44.4615C48.2754 43.0681 48.7671 41.6867 49.2128 40.3102C49.6093 40.5867 49.9986 40.8119 50.3701 41.001L50.2328 41.6441C50.0632 41.824 49.5762 42.3958 49.3751 43.317ZM50.741 41.771L50.8512 41.2306C50.9116 41.2575 50.9719 41.2838 51.0308 41.3085C51.3563 41.6486 51.7334 42.0052 52.1176 42.2793C54.1739 43.8818 56.723 44.4116 58.4521 44.1478C58.1376 45.0732 57.8898 45.7023 57.5846 46.4556C54.652 45.9079 51.4978 44.6448 50.741 41.771ZM59.2222 43.9416C59.6798 43.7651 60.0843 43.4829 60.4255 43.1377C60.6223 43.4854 60.7502 43.851 60.7681 44.2063C60.8317 45.4346 60.6833 46.6523 60.3128 47.817C60.2069 47.7603 57.9624 46.5623 58.1058 46.6388C58.4847 45.8884 58.8751 44.9636 59.2222 43.9416ZM41.9104 52.2217C41.794 52.931 41.7092 53.7039 41.635 54.5299C41.6325 54.5587 41.6309 54.5906 41.6283 54.6198C38.5139 59.4304 34.5857 64.3664 29.8399 69.47C19.2951 70.3425 11.2904 67.4721 9.29027 56.9918C8.95964 55.2085 9.15236 55.1906 9.02763 34.4952L9.01264 29.3934C17.7745 24.1533 24.7596 16.5755 29.8768 7.33673C32.3479 8.40564 37.0182 12.2698 49.0282 6.201C49.0727 6.17851 50.44 5.45878 50.6035 5.36876L50.648 22.8923C49.4222 23.2407 48.3768 23.7467 47.555 24.4558L47.5222 13.5534L47.5116 11.1711C47.5116 10.8002 47.1347 10.5304 46.7598 10.6947L45.8279 11.1181C35.8234 15.7288 31.065 12.1769 30.5386 12.0817C30.2951 11.9652 30.0092 12.0605 29.8717 12.2935C29.129 13.2905 24.2572 23.1843 12.6764 30.431L12.3587 30.6217C12.2103 30.7275 12.1152 30.897 12.1152 31.077L12.1788 52.6239C12.1788 53.4286 12.2315 54.0746 12.3375 54.6464C13.1316 58.744 15.0163 61.6239 18.0656 63.3393C21.4835 65.2717 25.4953 65.3654 29.3211 65.1605C29.448 65.1605 29.5752 65.0969 29.6706 65.0016C31.639 62.4553 42.7995 51.6005 46.5598 37.4562C47.2055 38.5343 47.9826 39.3605 48.7718 39.9816C48.2279 41.6694 47.6013 43.3647 46.8457 45.073C46.8211 45.0909 46.7947 45.1097 46.7704 45.1275C46.135 45.6147 45.5211 46.1123 44.9281 46.6205C44.5362 46.9488 44.1552 47.2769 43.7951 47.6157C42.8529 48.4098 42.2704 50.0087 41.921 52.2111L41.9104 52.2217ZM45.8347 35.9687C43.7829 44.8609 38.2784 54.0909 29.0669 64.0805L28.9822 64.1335C23.8423 64.4317 18.4887 63.7899 15.4716 59.5805C14.4763 58.1933 13.7773 56.4888 13.3857 54.4558C13.2903 53.9369 13.2376 53.3652 13.2376 52.6239L13.174 31.3628L13.2376 31.3311C24.8322 24.0713 29.4763 14.6536 30.5386 13.2357L30.6446 13.2887C35.0492 15.2898 40.1528 14.8982 46.2728 12.0817L46.4527 11.997L46.4633 14.0087L46.4993 25.6534C45.5146 27.0564 45.0069 28.9028 44.9966 31.2409C45.0072 33.1334 45.3321 34.6838 45.8347 35.9687ZM66.5386 59.4216C66.9623 63.784 58.8094 67.9028 51.2387 68.877C45.8388 69.5757 42.3868 68.4746 41.9633 65.9334C41.9148 62.0751 41.7912 54.5447 42.7363 50.8134C43.0312 49.6436 43.4202 48.6128 44.3245 47.8592C45.509 46.7754 47.581 45.1203 49.28 44.0052C49.1857 45.3708 49.9067 46.8588 51.2916 47.7535C52.6609 48.6418 54.3228 49.2807 56.3717 49.6941C56.9409 50.1234 57.5676 50.4002 58.1957 50.4993C58.8265 50.7154 59.8067 54.595 59.2173 62.59C59.2121 62.6541 59.2308 62.7182 59.27 62.7688L60.4075 64.2733C60.5213 64.4274 60.7676 64.4126 60.8572 64.2289L61.8375 62.1825C61.8551 62.1453 61.8633 62.105 61.8633 62.0647C61.8096 57.8149 61.1251 53.7068 59.8284 49.852C60.9857 48.6525 61.3905 45.8593 61.2975 44.1851C61.2776 43.6752 61.1015 43.1666 60.7973 42.6923C60.8588 42.6044 60.9265 42.5212 60.9798 42.4276C61.4986 41.4957 61.8269 40.384 62.0386 39.2829C62.2715 39.2829 62.5044 39.304 62.7376 39.3252C65.4374 41.2522 66.687 47.8276 66.5386 59.4216ZM64.7296 20.0824C64.7916 20.1427 64.8718 20.1764 64.9571 20.1764C65.0424 20.1764 65.1236 20.1432 65.1835 20.0824L66.55 18.7165C66.6748 18.5922 66.6748 18.3887 66.55 18.2639L65.1771 16.8916C65.1163 16.8312 65.0362 16.7976 64.9509 16.7976C64.8653 16.7976 64.7852 16.8312 64.7244 16.8921L63.359 18.2575C63.2342 18.3824 63.2342 18.5852 63.359 18.71L64.7296 20.0824Z" fill="#4B545D"/>
<path d="M37.7756 65.9118C37.7149 65.8515 37.635 65.8179 37.5494 65.8179C37.4641 65.8179 37.384 65.8515 37.3232 65.9124L35.9578 67.2776C35.8327 67.4026 35.8327 67.6054 35.9578 67.7303L37.3284 69.1027C37.3904 69.1629 37.4706 69.1965 37.5559 69.1965C37.6412 69.1965 37.7224 69.1634 37.7821 69.1027L39.1485 67.7367C39.2734 67.6124 39.2734 67.409 39.1485 67.2841L37.7756 65.9118ZM68.239 6.46535L66.8671 5.09348C66.8064 5.03273 66.7263 4.99912 66.641 4.99912C66.5554 4.99912 66.4755 5.03273 66.4145 5.09348L65.0481 6.45837C64.9232 6.58374 64.9232 6.78718 65.0481 6.91152L66.421 8.28391C66.4807 8.34465 66.5619 8.37774 66.6472 8.37774C66.7327 8.37774 66.8139 8.34465 66.8736 8.28391L68.239 6.91798C68.3639 6.79364 68.3639 6.5902 68.239 6.46535ZM6.50465 8.66106C6.57858 8.73628 6.67888 8.77726 6.78435 8.77726C6.89007 8.77726 6.99037 8.73628 7.0643 8.66106L8.75258 6.97227C8.90691 6.81846 8.90691 6.56694 8.75258 6.41261L7.05629 4.71632C6.98107 4.6411 6.88206 4.59961 6.77659 4.59961C6.67086 4.59961 6.57186 4.6411 6.49663 4.71632L4.80707 6.40395C4.65274 6.55905 4.65274 6.81045 4.80707 6.96425L6.50465 8.66106ZM5.47478 66.2014C4.87143 66.2014 4.38028 66.6919 4.38028 67.2956C4.38028 67.8993 4.87143 68.3897 5.47478 68.3897C6.08303 68.3897 6.57729 67.8993 6.57729 67.2956C6.57729 66.6919 6.08303 66.2014 5.47478 66.2014ZM56.5392 7.78267C57.1475 7.78267 57.6417 7.29204 57.6417 6.68843C57.6417 6.08483 57.1475 5.5942 56.5392 5.5942C55.9359 5.5942 55.4447 6.08483 55.4447 6.68843C55.4447 7.29204 55.9359 7.78267 56.5392 7.78267Z" fill="#4B545D"/>
</svg>
