<svg width="26" height="22" viewBox="0 0 26 22" fill="none" xmlns="http://www.w3.org/2000/svg">
<path d="M0 3.14286C0 1.40938 1.45742 0 3.25 0H22.75C24.5426 0 26 1.40938 26 3.14286V18.8571C26 20.5906 24.5426 22 22.75 22H3.25C1.45742 22 0 20.5906 0 18.8571V3.14286ZM16.443 8.37277C16.2145 8.04866 15.8387 7.85714 15.4375 7.85714C15.0363 7.85714 14.6555 8.04866 14.432 8.37277L10.0141 14.6388L8.66836 13.0134C8.43477 12.7335 8.08438 12.5714 7.71875 12.5714C7.35313 12.5714 6.99766 12.7335 6.76914 13.0134L3.51914 16.942C3.22461 17.2955 3.16875 17.7817 3.37188 18.1893C3.575 18.5969 4.00156 18.8571 4.46875 18.8571H9.34375H10.9688H21.5312C21.9832 18.8571 22.3996 18.6165 22.6078 18.2286C22.816 17.8406 22.7906 17.3741 22.5367 17.0156L16.443 8.37277ZM5.6875 7.85714C6.33397 7.85714 6.95395 7.6088 7.41107 7.16675C7.86819 6.7247 8.125 6.12515 8.125 5.5C8.125 4.87485 7.86819 4.2753 7.41107 3.83325C6.95395 3.3912 6.33397 3.14286 5.6875 3.14286C5.04104 3.14286 4.42105 3.3912 3.96393 3.83325C3.50681 4.2753 3.25 4.87485 3.25 5.5C3.25 6.12515 3.50681 6.7247 3.96393 7.16675C4.42105 7.6088 5.04104 7.85714 5.6875 7.85714Z" fill="#3B82F6"/>
</svg>
