<svg width="65" height="65" viewBox="0 0 65 65" fill="none" xmlns="http://www.w3.org/2000/svg">
<g clip-path="url(#clip0_29_6143)">
<path d="M32.207 39.542C37.3345 39.542 42.2522 41.5785 45.8779 45.2041C49.0291 48.3553 50.9798 52.4825 51.4365 56.875H50.0947C49.6434 52.8372 47.8362 49.0482 44.9355 46.1475C41.5599 42.7718 36.9809 40.875 32.207 40.875C27.4333 40.8751 22.8551 42.7719 19.4795 46.1475C16.5788 49.0483 14.7717 52.8371 14.3203 56.875H12.9785C13.4352 52.4825 15.3859 48.3553 18.5371 45.2041C22.1627 41.5787 27.0798 39.5421 32.207 39.542ZM32.207 4.875C39.9425 4.875 46.207 11.1396 46.207 18.875C46.207 26.6104 39.9425 32.875 32.207 32.875C24.4718 32.8748 18.207 26.6103 18.207 18.875C18.207 11.1397 24.4718 4.87518 32.207 4.875ZM32.207 6.20801C25.2093 6.20818 19.541 11.8772 19.541 18.875C19.541 25.8728 25.2093 31.5418 32.207 31.542C39.2049 31.542 44.874 25.8729 44.874 18.875C44.874 11.8771 39.2049 6.20801 32.207 6.20801Z" stroke="#C5CBE3" stroke-width="4"/>
</g>
<defs>
<clipPath id="clip0_29_6143">
<rect width="64" height="64" fill="white" transform="translate(0.207031 0.208008)"/>
</clipPath>
</defs>
</svg>
